M48
METRIC,LZ,000.000
;FILE_FORMAT=3:3
;TYPE=PLATED
;Layer: PTH_Through_Via
;EasyEDA v6.5.23, 2023-05-07 17:20:53
;06317d6caa1047b3ac86ced241ba49f9,e617cb807303496c873bc539bd577a54,10
;Gerber Generator version 0.2
;Holesize 1 = 0.305 mm
T01C0.305
;Holesize 2 = 0.306 mm
T02C0.306
;Holesize 3 = 0.501 mm
T03C0.501
%
G05
G90
T01
X028000Y025500
X028030Y026500
X028000Y027500
X028000Y028485
X028000Y029500
X028000Y030500
X028000Y031500
X028000Y032500
X028000Y033500
X028000Y034500
X029000Y025500
X029030Y026500
X029000Y027500
X029000Y028485
X029000Y029500
X029000Y030500
X029000Y031500
X029000Y032500
X029000Y033500
X029000Y034500
X030000Y025500
X030030Y026500
X030000Y027500
X030000Y028485
X030000Y029500
X030000Y030500
X030000Y031500
X030000Y032500
X030000Y033500
X030000Y034500
X031000Y025500
X031030Y026500
X031000Y027500
X031000Y028485
X031000Y029500
X031000Y030500
X031000Y031500
X031000Y032500
X031000Y033500
X031000Y034500
T02
X011500Y024500
X011500Y029500
X047500Y027040
X047500Y024500
T03
X038500Y026000
X022000Y037000
X011500Y026993
X011500Y022000
X047500Y022000
X047500Y029500
M30
