M48
METRIC,LZ,000.000
;FILE_FORMAT=3:3
;TYPE=PLATED
;Layer: PTH_Through
;EasyEDA v6.5.23, 2023-05-07 17:20:53
;06317d6caa1047b3ac86ced241ba49f9,e617cb807303496c873bc539bd577a54,10
;Gerber Generator version 0.2
;Holesize 1 = 0.600 mm
T01C0.600
;Holesize 2 = 0.889 mm
T02C0.889
;Holesize 3 = 0.901 mm
T03C0.901
;Holesize 4 = 1.301 mm
T04C1.301
;Holesize 5 = 1.400 mm
T05C1.400
;Holesize 6 = 4.101 mm
T06C4.101
%
G05
G90
T01
X005000Y024875
X005000Y026125
X055000Y026125
X055000Y024875
T02
X012220Y018500
X014760Y018500
X017300Y018500
X019840Y018500
X022380Y018500
X024920Y018500
X027460Y018500
X030000Y018500
X032540Y018500
X035080Y018500
X037620Y018500
X040160Y018500
X042700Y018500
X045240Y018500
X047780Y018500
X012220Y003260
X014760Y003260
X017300Y003260
X019840Y003260
X022380Y003260
X024920Y003260
X027460Y003260
X030000Y003260
X032540Y003260
X035080Y003260
X037620Y003260
X040160Y003260
X042700Y003260
X045240Y003260
X047780Y003260
T03
X029000Y044000
X025000Y044000
X027007Y044000
T04
X022900Y044000
X031100Y044000
T05
X039750Y044000
X036250Y044000
T06
X005000Y045000
X055000Y045000
X055000Y005000
X005000Y005000
M30
