G04 Layer: TopLayer*
G04 EasyEDA v6.5.23, 2023-05-07 17:20:53*
G04 06317d6caa1047b3ac86ced241ba49f9,e617cb807303496c873bc539bd577a54,10*
G04 Gerber Generator version 0.2*
G04 Scale: 100 percent, Rotated: No, Reflected: No *
G04 Dimensions in millimeters *
G04 leading zeros omitted , absolute positions ,4 integer and 5 decimal *
%FSLAX45Y45*%
%MOMM*%

%AMMACRO1*21,1,$1,$2,0,0,$3*%
%ADD10C,0.2540*%
%ADD11C,0.5000*%
%ADD12R,1.6000X3.0000*%
%ADD13R,5.8000X6.2000*%
%ADD14R,4.2000X1.4000*%
%ADD15O,2.6954987999999998X0.6510020000000001*%
%ADD16MACRO1,6X15.9X0.0000*%
%ADD17R,1.0000X1.2000*%
%ADD18O,1.599946X1.2999720000000001*%
%ADD19O,1.9999959999999999X2.999994*%
%ADD20C,2.2000*%
%ADD21C,1.0000*%
%ADD22R,1.0000X1.0000*%
%ADD23C,1.5748*%
%ADD24R,1.5748X1.5748*%
%ADD25C,6.0000*%
%ADD26C,0.6096*%
%ADD27C,0.6100*%
%ADD28C,0.8000*%
%ADD29C,0.0187*%

%LPD*%
G36*
X500227Y25908D02*
G01*
X469900Y26873D01*
X440283Y29718D01*
X410870Y34391D01*
X381812Y40894D01*
X353212Y49225D01*
X325170Y59334D01*
X297840Y71170D01*
X271322Y84734D01*
X245719Y99923D01*
X221081Y116636D01*
X197561Y134924D01*
X175260Y154635D01*
X154178Y175717D01*
X134518Y198069D01*
X116281Y221589D01*
X99568Y246227D01*
X84429Y271881D01*
X70916Y298450D01*
X59080Y325780D01*
X49022Y353822D01*
X40741Y382422D01*
X34290Y411480D01*
X29616Y440893D01*
X26822Y470560D01*
X25908Y500532D01*
X25908Y4499457D01*
X26873Y4530090D01*
X29718Y4559706D01*
X34391Y4589119D01*
X40894Y4618177D01*
X49225Y4646777D01*
X59334Y4674819D01*
X71170Y4702149D01*
X84734Y4728667D01*
X99923Y4754270D01*
X116636Y4778908D01*
X134924Y4802428D01*
X154635Y4824730D01*
X175717Y4845812D01*
X198069Y4865471D01*
X221589Y4883708D01*
X246227Y4900422D01*
X271881Y4915560D01*
X298450Y4929073D01*
X325780Y4940909D01*
X353822Y4950968D01*
X382422Y4959248D01*
X411480Y4965700D01*
X440893Y4970373D01*
X470560Y4973167D01*
X500532Y4974082D01*
X5499455Y4974082D01*
X5530088Y4973116D01*
X5559704Y4970272D01*
X5589117Y4965598D01*
X5618175Y4959096D01*
X5646775Y4950764D01*
X5674817Y4940655D01*
X5702147Y4928819D01*
X5728665Y4915255D01*
X5754268Y4900066D01*
X5778906Y4883353D01*
X5802426Y4865065D01*
X5824728Y4845354D01*
X5845810Y4824272D01*
X5865469Y4801920D01*
X5883706Y4778400D01*
X5900420Y4753762D01*
X5915558Y4728108D01*
X5929071Y4701540D01*
X5940907Y4674209D01*
X5950966Y4646168D01*
X5959246Y4617567D01*
X5965698Y4588510D01*
X5970371Y4559096D01*
X5973165Y4529429D01*
X5974080Y4499457D01*
X5974080Y500532D01*
X5973114Y469900D01*
X5970270Y440283D01*
X5965596Y410870D01*
X5959094Y381812D01*
X5950762Y353212D01*
X5940653Y325170D01*
X5928817Y297840D01*
X5915253Y271322D01*
X5900064Y245719D01*
X5883351Y221081D01*
X5865063Y197561D01*
X5845352Y175260D01*
X5824270Y154178D01*
X5801918Y134518D01*
X5778398Y116281D01*
X5753760Y99568D01*
X5728106Y84429D01*
X5701538Y70916D01*
X5674207Y59080D01*
X5646166Y49022D01*
X5617565Y40741D01*
X5588508Y34290D01*
X5559094Y29616D01*
X5529427Y26822D01*
X5499455Y25908D01*
G37*

%LPC*%
G36*
X5214112Y4656328D02*
G01*
X5343652Y4656328D01*
X5343652Y4785715D01*
X5337048Y4782210D01*
X5315661Y4768748D01*
X5295392Y4753660D01*
X5276342Y4737049D01*
X5258663Y4719015D01*
X5242407Y4699660D01*
X5227726Y4679086D01*
X5214620Y4657445D01*
G37*
G36*
X5656326Y214223D02*
G01*
X5673750Y224282D01*
X5694578Y238607D01*
X5714288Y254457D01*
X5732678Y271780D01*
X5749645Y290525D01*
X5765139Y310489D01*
X5779008Y331622D01*
X5785662Y343662D01*
X5656326Y343662D01*
G37*
G36*
X343662Y214274D02*
G01*
X343662Y343662D01*
X214121Y343662D01*
X214629Y342544D01*
X227736Y320903D01*
X242417Y300329D01*
X258673Y280974D01*
X276352Y262940D01*
X295402Y246329D01*
X315671Y231241D01*
X337058Y217779D01*
G37*
G36*
X5343652Y214274D02*
G01*
X5343652Y343662D01*
X5214112Y343662D01*
X5214620Y342544D01*
X5227726Y320903D01*
X5242407Y300329D01*
X5258663Y280974D01*
X5276342Y262940D01*
X5295392Y246329D01*
X5315661Y231241D01*
X5337048Y217779D01*
G37*
G36*
X4699812Y221335D02*
G01*
X4856175Y221335D01*
X4862474Y222046D01*
X4867960Y223977D01*
X4872837Y227075D01*
X4876952Y231140D01*
X4880000Y236067D01*
X4881930Y241503D01*
X4882642Y247853D01*
X4882642Y404164D01*
X4881930Y410514D01*
X4880000Y415950D01*
X4876952Y420827D01*
X4872837Y424942D01*
X4867960Y428040D01*
X4862474Y429920D01*
X4856175Y430631D01*
X4839055Y430631D01*
X4835194Y431444D01*
X4831892Y433628D01*
X4829657Y436930D01*
X4828895Y440791D01*
X4828895Y702716D01*
X4829657Y706577D01*
X4831892Y709879D01*
X5735828Y1613865D01*
X5738977Y1617268D01*
X5741670Y1620824D01*
X5744057Y1624533D01*
X5746140Y1628495D01*
X5747816Y1632610D01*
X5749137Y1636826D01*
X5750102Y1641144D01*
X5750712Y1645564D01*
X5750915Y1650238D01*
X5750915Y2999790D01*
X5750712Y3004413D01*
X5750102Y3008833D01*
X5749137Y3013151D01*
X5747816Y3017418D01*
X5746140Y3021533D01*
X5744057Y3025444D01*
X5741670Y3029204D01*
X5738977Y3032709D01*
X5735828Y3036163D01*
X5486146Y3285845D01*
X5482691Y3288995D01*
X5479186Y3291687D01*
X5475427Y3294075D01*
X5471515Y3296107D01*
X5467400Y3297834D01*
X5463133Y3299155D01*
X5458815Y3300120D01*
X5454396Y3300679D01*
X5449773Y3300882D01*
X5098542Y3300882D01*
X5094681Y3301695D01*
X5091379Y3303879D01*
X4958486Y3436721D01*
X4956302Y3440023D01*
X4955540Y3443935D01*
X4956302Y3447796D01*
X4958486Y3451098D01*
X4961788Y3453333D01*
X4965700Y3454095D01*
X4982718Y3454095D01*
X4989017Y3454806D01*
X4994503Y3456686D01*
X4999380Y3459784D01*
X5003495Y3463899D01*
X5006543Y3468776D01*
X5008473Y3474262D01*
X5009184Y3480562D01*
X5009184Y3619398D01*
X5008473Y3625748D01*
X5006543Y3631184D01*
X5003495Y3636111D01*
X4999380Y3640175D01*
X4994503Y3643274D01*
X4989017Y3645204D01*
X4982718Y3645915D01*
X4753356Y3645915D01*
X4749495Y3646678D01*
X4746193Y3648862D01*
X4459325Y3935780D01*
X4455871Y3938930D01*
X4452366Y3941622D01*
X4448606Y3944010D01*
X4444644Y3946042D01*
X4440580Y3947769D01*
X4436313Y3949090D01*
X4431995Y3950055D01*
X4427575Y3950614D01*
X4422952Y3950817D01*
X3075330Y3950817D01*
X3071469Y3951579D01*
X3068167Y3953814D01*
X2754680Y4267504D01*
X2752445Y4270806D01*
X2751683Y4274718D01*
X2751683Y4310380D01*
X2752344Y4313986D01*
X2754274Y4317136D01*
X2757170Y4319371D01*
X2762859Y4322318D01*
X2773019Y4329480D01*
X2782062Y4337964D01*
X2789885Y4347565D01*
X2791663Y4350461D01*
X2794457Y4353458D01*
X2798267Y4355134D01*
X2802382Y4355134D01*
X2806192Y4353458D01*
X2808986Y4350461D01*
X2810764Y4347565D01*
X2818587Y4337964D01*
X2827629Y4329480D01*
X2837789Y4322318D01*
X2848762Y4316628D01*
X2860497Y4312462D01*
X2872638Y4309973D01*
X2885338Y4309059D01*
X2914650Y4309059D01*
X2927350Y4309973D01*
X2939491Y4312462D01*
X2951226Y4316628D01*
X2962198Y4322318D01*
X2971444Y4328871D01*
X2975152Y4330496D01*
X2976676Y4330496D01*
X2977235Y4332935D01*
X2979572Y4336237D01*
X2981401Y4337964D01*
X2989224Y4347565D01*
X2995676Y4358182D01*
X3000603Y4369562D01*
X3003956Y4381500D01*
X3005683Y4393793D01*
X3005683Y4406188D01*
X3003956Y4418482D01*
X3000603Y4430420D01*
X2995676Y4441799D01*
X2989224Y4452416D01*
X2981401Y4462018D01*
X2979572Y4463745D01*
X2977235Y4467047D01*
X2976676Y4469485D01*
X2975152Y4469485D01*
X2971444Y4471111D01*
X2962198Y4477664D01*
X2956407Y4480661D01*
X2953461Y4482896D01*
X2951581Y4486046D01*
X2950921Y4489704D01*
X2950921Y4524705D01*
X2951683Y4528566D01*
X2953867Y4531868D01*
X3018078Y4596130D01*
X3021380Y4598314D01*
X3025292Y4599076D01*
X3474720Y4599076D01*
X3478580Y4598314D01*
X3481882Y4596130D01*
X3550208Y4527804D01*
X3552596Y4523994D01*
X3553104Y4519574D01*
X3551682Y4515358D01*
X3548583Y4512106D01*
X3543858Y4509008D01*
X3531717Y4498848D01*
X3520897Y4487316D01*
X3511448Y4474667D01*
X3503574Y4461002D01*
X3497275Y4446473D01*
X3492754Y4431334D01*
X3490010Y4415790D01*
X3489096Y4399991D01*
X3490010Y4384192D01*
X3492754Y4368647D01*
X3497275Y4353509D01*
X3503574Y4338980D01*
X3511448Y4325315D01*
X3520897Y4312666D01*
X3531717Y4301134D01*
X3543858Y4290974D01*
X3557066Y4282287D01*
X3571189Y4275226D01*
X3586022Y4269790D01*
X3601415Y4266184D01*
X3617112Y4264355D01*
X3632911Y4264355D01*
X3648608Y4266184D01*
X3663950Y4269790D01*
X3678834Y4275226D01*
X3692956Y4282287D01*
X3706164Y4290974D01*
X3718255Y4301134D01*
X3729075Y4312666D01*
X3738524Y4325315D01*
X3746449Y4338980D01*
X3752697Y4353509D01*
X3757218Y4368647D01*
X3759962Y4384192D01*
X3760876Y4399991D01*
X3759962Y4415790D01*
X3757218Y4431334D01*
X3752697Y4446473D01*
X3746449Y4461002D01*
X3738524Y4474667D01*
X3729075Y4487316D01*
X3718255Y4498848D01*
X3706164Y4509008D01*
X3692956Y4517694D01*
X3680815Y4523740D01*
X3678072Y4525772D01*
X3676142Y4528616D01*
X3674160Y4538167D01*
X3672840Y4542383D01*
X3671112Y4546498D01*
X3669080Y4550460D01*
X3666693Y4554169D01*
X3664000Y4557725D01*
X3660851Y4561128D01*
X3536137Y4685842D01*
X3532682Y4688992D01*
X3529177Y4691684D01*
X3525418Y4694072D01*
X3521506Y4696104D01*
X3517392Y4697831D01*
X3513175Y4699152D01*
X3508806Y4700117D01*
X3504437Y4700676D01*
X3499764Y4700879D01*
X3000197Y4700879D01*
X2995574Y4700676D01*
X2991154Y4700117D01*
X2986836Y4699152D01*
X2982569Y4697831D01*
X2978505Y4696104D01*
X2974543Y4694072D01*
X2970784Y4691684D01*
X2967278Y4688992D01*
X2963824Y4685842D01*
X2864154Y4586122D01*
X2861005Y4582718D01*
X2858312Y4579162D01*
X2855925Y4575454D01*
X2853842Y4571492D01*
X2852166Y4567377D01*
X2850845Y4563160D01*
X2849880Y4558842D01*
X2849270Y4554423D01*
X2849067Y4549749D01*
X2849067Y4489704D01*
X2848406Y4486046D01*
X2846527Y4482896D01*
X2843580Y4480661D01*
X2837789Y4477664D01*
X2827629Y4470501D01*
X2818587Y4462018D01*
X2810764Y4452416D01*
X2808986Y4449521D01*
X2806192Y4446524D01*
X2802382Y4444847D01*
X2798267Y4444847D01*
X2794457Y4446524D01*
X2791663Y4449521D01*
X2789885Y4452416D01*
X2782062Y4462018D01*
X2773019Y4470501D01*
X2762859Y4477664D01*
X2751886Y4483354D01*
X2740152Y4487519D01*
X2728010Y4490008D01*
X2715310Y4490872D01*
X2685999Y4490872D01*
X2673299Y4490008D01*
X2661158Y4487519D01*
X2649423Y4483354D01*
X2638450Y4477664D01*
X2628290Y4470501D01*
X2619248Y4462018D01*
X2611424Y4452416D01*
X2608986Y4448454D01*
X2606192Y4445406D01*
X2602382Y4443780D01*
X2598267Y4443780D01*
X2594457Y4445406D01*
X2591663Y4448454D01*
X2589225Y4452416D01*
X2581402Y4462018D01*
X2572359Y4470501D01*
X2562199Y4477664D01*
X2551226Y4483354D01*
X2539492Y4487519D01*
X2527350Y4490008D01*
X2514650Y4490872D01*
X2485339Y4490872D01*
X2472639Y4490008D01*
X2460498Y4487519D01*
X2448763Y4483354D01*
X2437790Y4477664D01*
X2428544Y4471111D01*
X2424836Y4469485D01*
X2423312Y4469485D01*
X2422753Y4467047D01*
X2420416Y4463745D01*
X2418588Y4462018D01*
X2410764Y4452416D01*
X2404313Y4441799D01*
X2399385Y4430420D01*
X2396032Y4418482D01*
X2394305Y4406188D01*
X2394305Y4393793D01*
X2396032Y4381500D01*
X2399385Y4369562D01*
X2404313Y4358182D01*
X2410764Y4347565D01*
X2418588Y4337964D01*
X2420416Y4336237D01*
X2422753Y4332935D01*
X2423312Y4330496D01*
X2424836Y4330496D01*
X2428544Y4328871D01*
X2437790Y4322318D01*
X2448763Y4316628D01*
X2460498Y4312462D01*
X2472639Y4309973D01*
X2485339Y4309059D01*
X2514650Y4309059D01*
X2527350Y4309973D01*
X2539492Y4312462D01*
X2551226Y4316628D01*
X2562199Y4322318D01*
X2572359Y4329480D01*
X2581402Y4337964D01*
X2589225Y4347565D01*
X2591663Y4351528D01*
X2594457Y4354576D01*
X2598267Y4356201D01*
X2602382Y4356201D01*
X2606192Y4354576D01*
X2608986Y4351528D01*
X2611424Y4347565D01*
X2619248Y4337964D01*
X2628290Y4329480D01*
X2638450Y4322318D01*
X2644241Y4319320D01*
X2647188Y4317085D01*
X2649067Y4313936D01*
X2649728Y4310278D01*
X2649728Y4275937D01*
X2648966Y4272076D01*
X2646781Y4268774D01*
X2481884Y4103878D01*
X2478582Y4101693D01*
X2474722Y4100880D01*
X1663598Y4100880D01*
X1658975Y4100677D01*
X1654556Y4100118D01*
X1650238Y4099153D01*
X1645970Y4097832D01*
X1641906Y4096105D01*
X1637944Y4094073D01*
X1634185Y4091686D01*
X1630680Y4088993D01*
X1627225Y4085844D01*
X1524152Y3982720D01*
X1521002Y3980586D01*
X1517243Y3979773D01*
X1513484Y3980332D01*
X1506677Y3982821D01*
X1500428Y3983532D01*
X1341577Y3983532D01*
X1335227Y3982821D01*
X1329791Y3980891D01*
X1324864Y3977792D01*
X1320800Y3973728D01*
X1317701Y3968800D01*
X1315821Y3963365D01*
X1315110Y3957015D01*
X1315110Y3658158D01*
X1315821Y3651504D01*
X1315567Y3647744D01*
X1313942Y3644341D01*
X1311148Y3641750D01*
X1307642Y3640378D01*
X1303832Y3640378D01*
X1300327Y3641750D01*
X1297940Y3643274D01*
X1292453Y3645204D01*
X1286154Y3645915D01*
X867308Y3645915D01*
X860958Y3645204D01*
X855522Y3643274D01*
X850595Y3640175D01*
X846531Y3636111D01*
X843432Y3631184D01*
X841502Y3625748D01*
X840790Y3619398D01*
X840790Y3480562D01*
X841502Y3474262D01*
X843432Y3468776D01*
X846531Y3463899D01*
X850595Y3459784D01*
X855522Y3456686D01*
X860958Y3454806D01*
X867308Y3454095D01*
X1286154Y3454095D01*
X1292453Y3454806D01*
X1297940Y3456686D01*
X1302816Y3459784D01*
X1306931Y3463899D01*
X1309979Y3468776D01*
X1311910Y3474262D01*
X1312621Y3480562D01*
X1312621Y3488944D01*
X1313383Y3492804D01*
X1315618Y3496106D01*
X1318920Y3498291D01*
X1322781Y3499104D01*
X1621180Y3499104D01*
X1625854Y3499307D01*
X1630222Y3499865D01*
X1634591Y3500831D01*
X1638807Y3502151D01*
X1642922Y3503879D01*
X1646834Y3505911D01*
X1650593Y3508298D01*
X1654149Y3510991D01*
X1657553Y3514140D01*
X1775866Y3632454D01*
X1779016Y3634587D01*
X1782724Y3635451D01*
X1786483Y3634841D01*
X1793290Y3632403D01*
X1799589Y3631692D01*
X1958441Y3631692D01*
X1964740Y3632403D01*
X1970227Y3634333D01*
X1975104Y3637381D01*
X1979218Y3641496D01*
X1980996Y3644341D01*
X1983232Y3646881D01*
X1986229Y3648506D01*
X1989582Y3649065D01*
X2154986Y3649065D01*
X2158034Y3648608D01*
X2160778Y3647287D01*
X2165248Y3644188D01*
X2168144Y3641090D01*
X2169566Y3637026D01*
X2169160Y3632758D01*
X2167026Y3629050D01*
X2163521Y3626561D01*
X2155190Y3622852D01*
X2147112Y3617620D01*
X2140000Y3611067D01*
X2134108Y3603447D01*
X2129485Y3594963D01*
X2129180Y3594100D01*
X2211476Y3594100D01*
X2211476Y3627120D01*
X2212289Y3631082D01*
X2214626Y3634435D01*
X2218029Y3636619D01*
X2228240Y3640480D01*
X2237435Y3645763D01*
X2245614Y3652469D01*
X2252675Y3660394D01*
X2258314Y3669385D01*
X2262479Y3679139D01*
X2265019Y3689400D01*
X2265883Y3699967D01*
X2265019Y3710584D01*
X2262479Y3720846D01*
X2258314Y3730599D01*
X2252675Y3739591D01*
X2245614Y3747515D01*
X2237435Y3754221D01*
X2228240Y3759504D01*
X2218334Y3763264D01*
X2207920Y3765397D01*
X2197354Y3765804D01*
X2186838Y3764534D01*
X2176627Y3761587D01*
X2167077Y3757066D01*
X2160778Y3752697D01*
X2158034Y3751376D01*
X2154986Y3750919D01*
X2011883Y3750919D01*
X2008022Y3751681D01*
X2004720Y3753865D01*
X1987854Y3770680D01*
X1985670Y3773982D01*
X1984908Y3777894D01*
X1984908Y3957015D01*
X1984197Y3963365D01*
X1982266Y3968800D01*
X1979218Y3973728D01*
X1975104Y3977792D01*
X1971090Y3980332D01*
X1967992Y3983380D01*
X1966468Y3987393D01*
X1966772Y3991711D01*
X1968804Y3995572D01*
X1972259Y3998163D01*
X1976526Y3999077D01*
X2488844Y3999077D01*
X2492705Y3998315D01*
X2496007Y3996131D01*
X2498242Y3992829D01*
X2499004Y3988917D01*
X2499004Y3075330D01*
X2498242Y3071418D01*
X2496007Y3068167D01*
X2457907Y3030016D01*
X2454097Y3027629D01*
X2449626Y3027121D01*
X2445359Y3028594D01*
X2442159Y3031794D01*
X2440635Y3036011D01*
X2441092Y3040532D01*
X2444089Y3049168D01*
X2445664Y3058668D01*
X2445664Y3068320D01*
X2444089Y3077819D01*
X2440940Y3086963D01*
X2436368Y3095447D01*
X2430424Y3103067D01*
X2423312Y3109620D01*
X2415235Y3114852D01*
X2408834Y3117697D01*
X2405634Y3119932D01*
X2403500Y3123184D01*
X2402738Y3126994D01*
X2403500Y3130804D01*
X2405634Y3134055D01*
X2408834Y3136290D01*
X2415235Y3139135D01*
X2423312Y3144367D01*
X2430424Y3150920D01*
X2436368Y3158540D01*
X2440940Y3167024D01*
X2444089Y3176168D01*
X2445664Y3185668D01*
X2445664Y3195320D01*
X2444089Y3204819D01*
X2440940Y3213963D01*
X2436368Y3222447D01*
X2430424Y3230067D01*
X2423312Y3236620D01*
X2415235Y3241852D01*
X2408834Y3244697D01*
X2405634Y3246932D01*
X2403500Y3250184D01*
X2402738Y3253994D01*
X2403500Y3257803D01*
X2405634Y3261055D01*
X2408834Y3263290D01*
X2415235Y3266135D01*
X2423312Y3271367D01*
X2430424Y3277920D01*
X2436368Y3285540D01*
X2440940Y3294024D01*
X2444089Y3303168D01*
X2445664Y3312668D01*
X2445664Y3322320D01*
X2444089Y3331819D01*
X2440940Y3340963D01*
X2436368Y3349447D01*
X2430424Y3357067D01*
X2423312Y3363620D01*
X2415235Y3368852D01*
X2408834Y3371697D01*
X2405634Y3373932D01*
X2403500Y3377184D01*
X2402738Y3380994D01*
X2403500Y3384804D01*
X2405634Y3388055D01*
X2408834Y3390290D01*
X2415235Y3393135D01*
X2423312Y3398367D01*
X2430424Y3404920D01*
X2436368Y3412540D01*
X2440940Y3421024D01*
X2441244Y3421887D01*
X2358948Y3421887D01*
X2358948Y3386124D01*
X2358186Y3382213D01*
X2356002Y3378911D01*
X2352700Y3376726D01*
X2348788Y3375964D01*
X2221636Y3375964D01*
X2217775Y3376726D01*
X2214473Y3378911D01*
X2212238Y3382213D01*
X2211476Y3386124D01*
X2211476Y3421887D01*
X2129180Y3421887D01*
X2129485Y3421024D01*
X2134108Y3412540D01*
X2140000Y3404920D01*
X2147112Y3398367D01*
X2155190Y3393135D01*
X2161590Y3390290D01*
X2164791Y3388055D01*
X2166924Y3384804D01*
X2167686Y3380994D01*
X2166924Y3377184D01*
X2164791Y3373932D01*
X2161590Y3371697D01*
X2155190Y3368852D01*
X2147112Y3363620D01*
X2140000Y3357067D01*
X2134108Y3349447D01*
X2129485Y3340963D01*
X2126335Y3331819D01*
X2124760Y3322320D01*
X2124760Y3312668D01*
X2126335Y3303168D01*
X2129485Y3294024D01*
X2134108Y3285540D01*
X2140000Y3277920D01*
X2147112Y3271367D01*
X2155190Y3266135D01*
X2161590Y3263290D01*
X2164791Y3261055D01*
X2166924Y3257803D01*
X2167686Y3253994D01*
X2166924Y3250184D01*
X2164791Y3246932D01*
X2161590Y3244697D01*
X2156053Y3242259D01*
X2151989Y3241395D01*
X1845716Y3241395D01*
X1841042Y3241192D01*
X1836674Y3240633D01*
X1832305Y3239668D01*
X1828088Y3238347D01*
X1823974Y3236620D01*
X1820062Y3234588D01*
X1816303Y3232200D01*
X1812798Y3229508D01*
X1809343Y3226358D01*
X1621891Y3038856D01*
X1618589Y3036671D01*
X1614678Y3035909D01*
X1555546Y3035909D01*
X1549247Y3035198D01*
X1543761Y3033268D01*
X1538884Y3030220D01*
X1534769Y3026105D01*
X1531721Y3021228D01*
X1529791Y3015742D01*
X1529080Y3009442D01*
X1529080Y2950311D01*
X1528318Y2946400D01*
X1526133Y2943098D01*
X1459484Y2876499D01*
X1456182Y2874264D01*
X1452321Y2873502D01*
X1380337Y2873502D01*
X1376222Y2874416D01*
X1372768Y2876905D01*
X1370685Y2880563D01*
X1370279Y2884830D01*
X1370888Y2890570D01*
X1370888Y2913634D01*
X1326337Y2913634D01*
X1326337Y2883662D01*
X1325575Y2879801D01*
X1323390Y2876499D01*
X1320088Y2874264D01*
X1316177Y2873502D01*
X1273810Y2873502D01*
X1269898Y2874264D01*
X1266647Y2876499D01*
X1264412Y2879801D01*
X1263650Y2883662D01*
X1263650Y2913634D01*
X1219098Y2913634D01*
X1219098Y2890570D01*
X1219758Y2884830D01*
X1219301Y2880563D01*
X1217218Y2876905D01*
X1213815Y2874416D01*
X1209649Y2873502D01*
X1079703Y2873502D01*
X1075080Y2873298D01*
X1070660Y2872740D01*
X1066342Y2871774D01*
X1062075Y2870454D01*
X1058011Y2868726D01*
X1054049Y2866694D01*
X1050290Y2864307D01*
X1046784Y2861614D01*
X1043330Y2858465D01*
X851255Y2666390D01*
X848004Y2664155D01*
X844092Y2663393D01*
X584098Y2663393D01*
X580034Y2664256D01*
X576630Y2666644D01*
X574497Y2670200D01*
X573278Y2673705D01*
X570179Y2678582D01*
X566115Y2682697D01*
X561187Y2685796D01*
X555752Y2687675D01*
X549452Y2688386D01*
X450545Y2688386D01*
X444246Y2687675D01*
X438810Y2685796D01*
X433882Y2682697D01*
X429818Y2678582D01*
X426720Y2673705D01*
X424789Y2668270D01*
X424078Y2661920D01*
X424078Y2563063D01*
X424789Y2556764D01*
X426720Y2551277D01*
X429768Y2546400D01*
X434848Y2541422D01*
X437184Y2537764D01*
X437845Y2533497D01*
X436626Y2529332D01*
X430784Y2518511D01*
X426821Y2507589D01*
X424637Y2496210D01*
X424180Y2484577D01*
X425500Y2473045D01*
X428599Y2461869D01*
X433324Y2451252D01*
X439674Y2441498D01*
X447395Y2432812D01*
X456336Y2425446D01*
X466343Y2419502D01*
X477113Y2415133D01*
X488391Y2412492D01*
X500024Y2411628D01*
X511606Y2412492D01*
X522884Y2415133D01*
X533654Y2419502D01*
X543661Y2425446D01*
X552907Y2433167D01*
X556361Y2435656D01*
X560527Y2436571D01*
X887221Y2436571D01*
X891133Y2435809D01*
X894384Y2433574D01*
X1036523Y2291435D01*
X1039977Y2288286D01*
X1043482Y2285593D01*
X1047242Y2283206D01*
X1051204Y2281174D01*
X1055268Y2279446D01*
X1059535Y2278126D01*
X1063853Y2277160D01*
X1068273Y2276602D01*
X1072896Y2276398D01*
X1112723Y2276398D01*
X1116533Y2275636D01*
X1119784Y2273503D01*
X1122019Y2270302D01*
X1122883Y2266543D01*
X1122222Y2262682D01*
X1120190Y2259380D01*
X1108354Y2251049D01*
X1100683Y2243683D01*
X1094333Y2235200D01*
X1089406Y2225802D01*
X1086053Y2215743D01*
X1084326Y2205278D01*
X1084326Y2194712D01*
X1086053Y2184247D01*
X1089406Y2174189D01*
X1094333Y2164791D01*
X1100683Y2156307D01*
X1108354Y2148992D01*
X1117041Y2142947D01*
X1126642Y2138426D01*
X1136802Y2135479D01*
X1147368Y2134158D01*
X1157935Y2134616D01*
X1168349Y2136698D01*
X1178255Y2140458D01*
X1191666Y2148484D01*
X1195070Y2149094D01*
X1209040Y2149094D01*
X1212697Y2148433D01*
X1215796Y2146503D01*
X1218082Y2143607D01*
X1219149Y2140051D01*
X1219809Y2134260D01*
X1221689Y2128774D01*
X1224788Y2123897D01*
X1228902Y2119782D01*
X1233779Y2116734D01*
X1239266Y2114804D01*
X1245565Y2114092D01*
X1344422Y2114092D01*
X1350772Y2114804D01*
X1356207Y2116734D01*
X1361135Y2119782D01*
X1365199Y2123897D01*
X1368298Y2128774D01*
X1370177Y2134260D01*
X1370888Y2140559D01*
X1370888Y2259431D01*
X1370279Y2265070D01*
X1370685Y2269337D01*
X1372768Y2272995D01*
X1376222Y2275484D01*
X1380388Y2276398D01*
X1482090Y2276398D01*
X1486712Y2276602D01*
X1491132Y2277160D01*
X1495450Y2278126D01*
X1499717Y2279446D01*
X1503832Y2281174D01*
X1507744Y2283206D01*
X1511503Y2285593D01*
X1515008Y2288286D01*
X1518462Y2291435D01*
X1536750Y2309723D01*
X1540052Y2311958D01*
X1543913Y2312720D01*
X1547825Y2311958D01*
X1551127Y2309723D01*
X1553311Y2306421D01*
X1554073Y2302560D01*
X1554073Y2294077D01*
X1553210Y2290013D01*
X1550822Y2286660D01*
X1547266Y2284526D01*
X1543761Y2283256D01*
X1538884Y2280208D01*
X1534769Y2276094D01*
X1531721Y2271217D01*
X1529791Y2265730D01*
X1529080Y2259431D01*
X1529080Y2140559D01*
X1529791Y2134260D01*
X1531721Y2128774D01*
X1534769Y2123897D01*
X1538884Y2119782D01*
X1543761Y2116734D01*
X1549247Y2114804D01*
X1555546Y2114092D01*
X1654403Y2114092D01*
X1660753Y2114804D01*
X1666189Y2116734D01*
X1671116Y2119782D01*
X1675180Y2123897D01*
X1678279Y2128774D01*
X1680210Y2134260D01*
X1680921Y2140559D01*
X1680921Y2259431D01*
X1680210Y2265730D01*
X1678279Y2271217D01*
X1675180Y2276094D01*
X1671116Y2280208D01*
X1666189Y2283256D01*
X1662684Y2284526D01*
X1659128Y2286660D01*
X1656740Y2290013D01*
X1655876Y2294077D01*
X1655876Y2355900D01*
X1656740Y2359964D01*
X1659128Y2363317D01*
X1662684Y2365502D01*
X1666189Y2366721D01*
X1671116Y2369769D01*
X1675180Y2373884D01*
X1678279Y2378760D01*
X1680210Y2384247D01*
X1680921Y2390546D01*
X1680921Y2449677D01*
X1681683Y2453589D01*
X1683867Y2456891D01*
X1935835Y2708859D01*
X1938985Y2712262D01*
X1941677Y2715818D01*
X1944065Y2719527D01*
X1946148Y2723489D01*
X1947824Y2727604D01*
X1949145Y2731820D01*
X1950110Y2736138D01*
X1950720Y2740558D01*
X1950923Y2745232D01*
X1950923Y2824683D01*
X1951685Y2828594D01*
X1953869Y2831896D01*
X2131618Y3009595D01*
X2134920Y3011830D01*
X2138781Y3012592D01*
X2151989Y3012592D01*
X2156053Y3011728D01*
X2161590Y3009290D01*
X2164791Y3007055D01*
X2166924Y3003804D01*
X2167686Y2999994D01*
X2166924Y2996184D01*
X2164791Y2992932D01*
X2161590Y2990697D01*
X2155190Y2987852D01*
X2147112Y2982620D01*
X2140000Y2976067D01*
X2134108Y2968447D01*
X2129485Y2959963D01*
X2126335Y2950819D01*
X2124760Y2941320D01*
X2124760Y2931668D01*
X2126335Y2922168D01*
X2129485Y2913024D01*
X2134108Y2904540D01*
X2140000Y2896920D01*
X2147112Y2890367D01*
X2155190Y2885135D01*
X2161590Y2882290D01*
X2164791Y2880055D01*
X2166924Y2876804D01*
X2167686Y2872994D01*
X2166924Y2869184D01*
X2164791Y2865932D01*
X2161590Y2863697D01*
X2155190Y2860852D01*
X2147112Y2855620D01*
X2140000Y2849067D01*
X2134108Y2841447D01*
X2131517Y2836722D01*
X2129790Y2834335D01*
X2023110Y2727655D01*
X2017979Y2721457D01*
X2014423Y2714752D01*
X2012238Y2707538D01*
X2011425Y2699512D01*
X2011425Y2038451D01*
X2012238Y2030425D01*
X2014423Y2023211D01*
X2017979Y2016556D01*
X2023110Y2010308D01*
X2137359Y1896008D01*
X2139492Y1892909D01*
X2140356Y1889302D01*
X2139797Y1885594D01*
X2136952Y1877060D01*
X2134260Y1863648D01*
X2133346Y1849983D01*
X2134260Y1836318D01*
X2136952Y1822907D01*
X2141321Y1809953D01*
X2147366Y1797659D01*
X2154986Y1786280D01*
X2164029Y1776018D01*
X2174290Y1766976D01*
X2185670Y1759407D01*
X2197963Y1753311D01*
X2210917Y1748942D01*
X2224328Y1746250D01*
X2237994Y1745386D01*
X2251659Y1746250D01*
X2265070Y1748942D01*
X2278024Y1753311D01*
X2290318Y1759407D01*
X2301697Y1766976D01*
X2311958Y1776018D01*
X2321001Y1786280D01*
X2328621Y1797659D01*
X2334666Y1809953D01*
X2339035Y1822907D01*
X2341727Y1836318D01*
X2342642Y1849983D01*
X2341727Y1863648D01*
X2339035Y1877060D01*
X2334666Y1890014D01*
X2328621Y1902307D01*
X2321001Y1913686D01*
X2311958Y1923999D01*
X2301697Y1932990D01*
X2290318Y1940610D01*
X2278024Y1946656D01*
X2265070Y1951075D01*
X2251659Y1953717D01*
X2237994Y1954631D01*
X2224328Y1953717D01*
X2210917Y1951075D01*
X2202434Y1948180D01*
X2198725Y1947672D01*
X2195068Y1948484D01*
X2191969Y1950618D01*
X2091639Y2050999D01*
X2089404Y2054301D01*
X2088642Y2058162D01*
X2088642Y2679801D01*
X2089404Y2683713D01*
X2091639Y2687015D01*
X2108911Y2704287D01*
X2112467Y2706624D01*
X2116683Y2707284D01*
X2120747Y2706166D01*
X2124049Y2703474D01*
X2125929Y2699664D01*
X2126132Y2695448D01*
X2124760Y2687320D01*
X2124760Y2677668D01*
X2126335Y2668168D01*
X2129485Y2659024D01*
X2134108Y2650540D01*
X2140000Y2642920D01*
X2147112Y2636367D01*
X2155190Y2631135D01*
X2161590Y2628290D01*
X2164791Y2626055D01*
X2166924Y2622804D01*
X2167686Y2618994D01*
X2166924Y2615184D01*
X2164791Y2611932D01*
X2161590Y2609697D01*
X2155190Y2606852D01*
X2147112Y2601620D01*
X2140000Y2595067D01*
X2134108Y2587447D01*
X2129485Y2578963D01*
X2126335Y2569819D01*
X2124760Y2560320D01*
X2124760Y2550668D01*
X2126335Y2541168D01*
X2129485Y2532024D01*
X2134108Y2523540D01*
X2140000Y2515920D01*
X2147112Y2509367D01*
X2155190Y2504135D01*
X2161590Y2501290D01*
X2164791Y2499055D01*
X2166924Y2495804D01*
X2167686Y2491994D01*
X2166924Y2488184D01*
X2164791Y2484932D01*
X2161590Y2482697D01*
X2155190Y2479852D01*
X2147112Y2474620D01*
X2140000Y2468067D01*
X2134108Y2460447D01*
X2129485Y2451963D01*
X2129180Y2451100D01*
X2211476Y2451100D01*
X2211476Y2486863D01*
X2212238Y2490774D01*
X2214473Y2494076D01*
X2217775Y2496261D01*
X2221636Y2497023D01*
X2348788Y2497023D01*
X2352700Y2496261D01*
X2356002Y2494076D01*
X2358186Y2490774D01*
X2358948Y2486863D01*
X2358948Y2451100D01*
X2443226Y2451100D01*
X2447137Y2450338D01*
X2450388Y2448153D01*
X2452624Y2444851D01*
X2453386Y2440940D01*
X2453386Y2416048D01*
X2452624Y2412136D01*
X2450388Y2408834D01*
X2447137Y2406650D01*
X2443226Y2405888D01*
X2358948Y2405888D01*
X2358948Y2370023D01*
X2387041Y2370023D01*
X2397048Y2370886D01*
X2406396Y2373223D01*
X2415235Y2377135D01*
X2423312Y2382367D01*
X2430424Y2388920D01*
X2435199Y2395067D01*
X2438400Y2397760D01*
X2442362Y2398928D01*
X2446528Y2398420D01*
X2450084Y2396286D01*
X2452522Y2392883D01*
X2453386Y2388819D01*
X2453386Y1953666D01*
X2452674Y1950008D01*
X2450693Y1946808D01*
X2447696Y1944573D01*
X2439670Y1940610D01*
X2428290Y1932990D01*
X2418029Y1923999D01*
X2408986Y1913686D01*
X2401366Y1902307D01*
X2395321Y1890014D01*
X2390952Y1877060D01*
X2388260Y1863648D01*
X2387346Y1849983D01*
X2388260Y1836318D01*
X2390952Y1822907D01*
X2395321Y1809953D01*
X2401366Y1797659D01*
X2408986Y1786280D01*
X2418029Y1776018D01*
X2428290Y1766976D01*
X2439670Y1759407D01*
X2451963Y1753311D01*
X2464917Y1748942D01*
X2478328Y1746250D01*
X2491994Y1745386D01*
X2505659Y1746250D01*
X2519070Y1748942D01*
X2532024Y1753311D01*
X2544318Y1759407D01*
X2555697Y1766976D01*
X2565958Y1776018D01*
X2575001Y1786280D01*
X2582621Y1797659D01*
X2588666Y1809953D01*
X2593035Y1822907D01*
X2595727Y1836318D01*
X2596642Y1849983D01*
X2595727Y1863648D01*
X2593035Y1877060D01*
X2588666Y1890014D01*
X2582621Y1902307D01*
X2575001Y1913686D01*
X2565958Y1923999D01*
X2555697Y1932990D01*
X2544318Y1940610D01*
X2536291Y1944573D01*
X2533294Y1946808D01*
X2531313Y1950008D01*
X2530602Y1953666D01*
X2530602Y1986280D01*
X2531364Y1990140D01*
X2533599Y1993442D01*
X2536850Y1995678D01*
X2540762Y1996439D01*
X2544673Y1995678D01*
X2547924Y1993442D01*
X2645359Y1896008D01*
X2647492Y1892909D01*
X2648356Y1889302D01*
X2647797Y1885594D01*
X2644952Y1877060D01*
X2642260Y1863648D01*
X2641346Y1849983D01*
X2642260Y1836318D01*
X2644952Y1822907D01*
X2649321Y1809953D01*
X2655366Y1797659D01*
X2662986Y1786280D01*
X2672029Y1776018D01*
X2682290Y1766976D01*
X2693670Y1759407D01*
X2705963Y1753311D01*
X2718917Y1748942D01*
X2732328Y1746250D01*
X2745994Y1745386D01*
X2759659Y1746250D01*
X2773070Y1748942D01*
X2786024Y1753311D01*
X2798318Y1759407D01*
X2809697Y1766976D01*
X2819958Y1776018D01*
X2829001Y1786280D01*
X2836621Y1797659D01*
X2842666Y1809953D01*
X2847035Y1822907D01*
X2849727Y1836318D01*
X2850642Y1849983D01*
X2849727Y1863648D01*
X2847035Y1877060D01*
X2842666Y1890014D01*
X2836621Y1902307D01*
X2829001Y1913686D01*
X2819958Y1923999D01*
X2809697Y1932990D01*
X2798318Y1940610D01*
X2786024Y1946656D01*
X2773070Y1951075D01*
X2759659Y1953717D01*
X2745994Y1954631D01*
X2732328Y1953717D01*
X2718917Y1951075D01*
X2710434Y1948180D01*
X2706725Y1947672D01*
X2703068Y1948484D01*
X2699969Y1950618D01*
X2591562Y2059025D01*
X2589377Y2062327D01*
X2588615Y2066188D01*
X2588615Y2599486D01*
X2587802Y2607513D01*
X2585618Y2614777D01*
X2582062Y2621432D01*
X2576931Y2627630D01*
X2495143Y2709468D01*
X2488895Y2714548D01*
X2482240Y2718104D01*
X2475026Y2720289D01*
X2467000Y2721102D01*
X2435453Y2721102D01*
X2431745Y2721813D01*
X2428544Y2723794D01*
X2423312Y2728620D01*
X2415235Y2733852D01*
X2408834Y2736697D01*
X2405634Y2738932D01*
X2403500Y2742184D01*
X2402738Y2745994D01*
X2403500Y2749804D01*
X2405634Y2753055D01*
X2408834Y2755290D01*
X2415235Y2758135D01*
X2423312Y2763367D01*
X2430424Y2769920D01*
X2436368Y2777540D01*
X2440940Y2786024D01*
X2444089Y2795168D01*
X2445664Y2804668D01*
X2445664Y2814320D01*
X2444089Y2823819D01*
X2440940Y2832963D01*
X2436368Y2841447D01*
X2430424Y2849067D01*
X2423312Y2855620D01*
X2415235Y2860852D01*
X2408834Y2863697D01*
X2405634Y2865932D01*
X2403500Y2869184D01*
X2402738Y2872994D01*
X2403500Y2876804D01*
X2405634Y2880055D01*
X2408834Y2882290D01*
X2414371Y2884728D01*
X2418486Y2885592D01*
X2436164Y2885592D01*
X2440787Y2885795D01*
X2445207Y2886354D01*
X2449525Y2887319D01*
X2453792Y2888640D01*
X2457856Y2890367D01*
X2461818Y2892399D01*
X2465578Y2894787D01*
X2469083Y2897479D01*
X2472537Y2900629D01*
X2585770Y3013862D01*
X2588920Y3017316D01*
X2591612Y3020822D01*
X2594000Y3024581D01*
X2596032Y3028543D01*
X2597759Y3032607D01*
X2599080Y3036874D01*
X2600045Y3041192D01*
X2600604Y3045612D01*
X2600807Y3050235D01*
X2600807Y4074617D01*
X2601569Y4078478D01*
X2603804Y4081779D01*
X2692908Y4170883D01*
X2696210Y4173118D01*
X2700121Y4173880D01*
X2703982Y4173118D01*
X2707284Y4170883D01*
X3013862Y3864101D01*
X3017316Y3860901D01*
X3020822Y3858209D01*
X3024581Y3855821D01*
X3028492Y3853789D01*
X3032607Y3852062D01*
X3036824Y3850741D01*
X3041192Y3849776D01*
X3045561Y3849217D01*
X3050235Y3849014D01*
X4397857Y3849014D01*
X4401769Y3848252D01*
X4405020Y3846017D01*
X4587849Y3663238D01*
X4590034Y3659936D01*
X4590796Y3656076D01*
X4590034Y3652164D01*
X4587849Y3648862D01*
X4584547Y3646678D01*
X4580636Y3645915D01*
X4563821Y3645915D01*
X4557522Y3645204D01*
X4552035Y3643274D01*
X4547158Y3640175D01*
X4543044Y3636111D01*
X4539996Y3631184D01*
X4538065Y3625748D01*
X4537354Y3619398D01*
X4537354Y3480562D01*
X4538065Y3474262D01*
X4539996Y3468776D01*
X4543044Y3463899D01*
X4547158Y3459784D01*
X4552035Y3456686D01*
X4557522Y3454806D01*
X4563821Y3454095D01*
X4792980Y3454095D01*
X4796840Y3453333D01*
X4800142Y3451098D01*
X5037124Y3214166D01*
X5040528Y3211017D01*
X5044084Y3208274D01*
X5047792Y3205886D01*
X5051755Y3203854D01*
X5055870Y3202178D01*
X5060086Y3200806D01*
X5064404Y3199841D01*
X5068824Y3199282D01*
X5073497Y3199079D01*
X5424678Y3199079D01*
X5428589Y3198317D01*
X5431891Y3196082D01*
X5646115Y2981909D01*
X5648299Y2978607D01*
X5649061Y2974695D01*
X5649061Y1675282D01*
X5648299Y1671421D01*
X5646115Y1668119D01*
X4742129Y764133D01*
X4738979Y760730D01*
X4736287Y757174D01*
X4733899Y753465D01*
X4731867Y749503D01*
X4730140Y745388D01*
X4728819Y741172D01*
X4727854Y736854D01*
X4727295Y732434D01*
X4727092Y727760D01*
X4727092Y440791D01*
X4726330Y436930D01*
X4724095Y433628D01*
X4720793Y431444D01*
X4716932Y430631D01*
X4699812Y430631D01*
X4693513Y429920D01*
X4688027Y428040D01*
X4683150Y424942D01*
X4679035Y420827D01*
X4675987Y415950D01*
X4674057Y410514D01*
X4673346Y404164D01*
X4673346Y247853D01*
X4674057Y241503D01*
X4675987Y236067D01*
X4679035Y231140D01*
X4683150Y227075D01*
X4688027Y223977D01*
X4693513Y222046D01*
G37*
G36*
X1475994Y221386D02*
G01*
X1489659Y222250D01*
X1503070Y224942D01*
X1516024Y229362D01*
X1528318Y235407D01*
X1539697Y242976D01*
X1549958Y252018D01*
X1559001Y262331D01*
X1566621Y273710D01*
X1572666Y285953D01*
X1577035Y298907D01*
X1579727Y312318D01*
X1580642Y325983D01*
X1579727Y339648D01*
X1577035Y353060D01*
X1572666Y366014D01*
X1566621Y378307D01*
X1559001Y389686D01*
X1549958Y399999D01*
X1539697Y408990D01*
X1528318Y416610D01*
X1516024Y422656D01*
X1503070Y427075D01*
X1489659Y429717D01*
X1475994Y430631D01*
X1462328Y429717D01*
X1448917Y427075D01*
X1435963Y422656D01*
X1423670Y416610D01*
X1412290Y408990D01*
X1402029Y399999D01*
X1392986Y389686D01*
X1385366Y378307D01*
X1379321Y366014D01*
X1374952Y353060D01*
X1372260Y339648D01*
X1371346Y325983D01*
X1372260Y312318D01*
X1374952Y298907D01*
X1379321Y285953D01*
X1385366Y273710D01*
X1392986Y262331D01*
X1402029Y252018D01*
X1412290Y242976D01*
X1423670Y235407D01*
X1435963Y229362D01*
X1448917Y224942D01*
X1462328Y222250D01*
G37*
G36*
X1729993Y221386D02*
G01*
X1743659Y222250D01*
X1757070Y224942D01*
X1770024Y229362D01*
X1782318Y235407D01*
X1793697Y242976D01*
X1803958Y252018D01*
X1813001Y262331D01*
X1820621Y273710D01*
X1826666Y285953D01*
X1831035Y298907D01*
X1833727Y312318D01*
X1834642Y325983D01*
X1833727Y339648D01*
X1831035Y353060D01*
X1826666Y366014D01*
X1820621Y378307D01*
X1813001Y389686D01*
X1803958Y399999D01*
X1793697Y408990D01*
X1782318Y416610D01*
X1770024Y422656D01*
X1757070Y427075D01*
X1743659Y429717D01*
X1729993Y430631D01*
X1716328Y429717D01*
X1702917Y427075D01*
X1689963Y422656D01*
X1677670Y416610D01*
X1666290Y408990D01*
X1656029Y399999D01*
X1646986Y389686D01*
X1639366Y378307D01*
X1633321Y366014D01*
X1628952Y353060D01*
X1626260Y339648D01*
X1625346Y325983D01*
X1626260Y312318D01*
X1628952Y298907D01*
X1633321Y285953D01*
X1639366Y273710D01*
X1646986Y262331D01*
X1656029Y252018D01*
X1666290Y242976D01*
X1677670Y235407D01*
X1689963Y229362D01*
X1702917Y224942D01*
X1716328Y222250D01*
G37*
G36*
X1221994Y221386D02*
G01*
X1235659Y222250D01*
X1249070Y224942D01*
X1262024Y229362D01*
X1274318Y235407D01*
X1285697Y242976D01*
X1295958Y252018D01*
X1305001Y262331D01*
X1312621Y273710D01*
X1318666Y285953D01*
X1323035Y298907D01*
X1325727Y312318D01*
X1326642Y325983D01*
X1325727Y339648D01*
X1323035Y353060D01*
X1318666Y366014D01*
X1312621Y378307D01*
X1305001Y389686D01*
X1295958Y399999D01*
X1285697Y408990D01*
X1274318Y416610D01*
X1262024Y422656D01*
X1249070Y427075D01*
X1235659Y429717D01*
X1221994Y430631D01*
X1208328Y429717D01*
X1194917Y427075D01*
X1181963Y422656D01*
X1169670Y416610D01*
X1158290Y408990D01*
X1148029Y399999D01*
X1138986Y389686D01*
X1131366Y378307D01*
X1125321Y366014D01*
X1120952Y353060D01*
X1118260Y339648D01*
X1117346Y325983D01*
X1118260Y312318D01*
X1120952Y298907D01*
X1125321Y285953D01*
X1131366Y273710D01*
X1138986Y262331D01*
X1148029Y252018D01*
X1158290Y242976D01*
X1169670Y235407D01*
X1181963Y229362D01*
X1194917Y224942D01*
X1208328Y222250D01*
G37*
G36*
X1983993Y221386D02*
G01*
X1997659Y222250D01*
X2011070Y224942D01*
X2024024Y229362D01*
X2036318Y235407D01*
X2047697Y242976D01*
X2057958Y252018D01*
X2067001Y262331D01*
X2074621Y273710D01*
X2080666Y285953D01*
X2085035Y298907D01*
X2087727Y312318D01*
X2088642Y325983D01*
X2087727Y339648D01*
X2085035Y353060D01*
X2080666Y366014D01*
X2074621Y378307D01*
X2067001Y389686D01*
X2057958Y399999D01*
X2047697Y408990D01*
X2036318Y416610D01*
X2024024Y422656D01*
X2011070Y427075D01*
X1997659Y429717D01*
X1983993Y430631D01*
X1970328Y429717D01*
X1956917Y427075D01*
X1943963Y422656D01*
X1931670Y416610D01*
X1920290Y408990D01*
X1910029Y399999D01*
X1900986Y389686D01*
X1893366Y378307D01*
X1887321Y366014D01*
X1882952Y353060D01*
X1880260Y339648D01*
X1879346Y325983D01*
X1880260Y312318D01*
X1882952Y298907D01*
X1887321Y285953D01*
X1893366Y273710D01*
X1900986Y262331D01*
X1910029Y252018D01*
X1920290Y242976D01*
X1931670Y235407D01*
X1943963Y229362D01*
X1956917Y224942D01*
X1970328Y222250D01*
G37*
G36*
X3761994Y221386D02*
G01*
X3775659Y222250D01*
X3789070Y224942D01*
X3802024Y229362D01*
X3814318Y235407D01*
X3825697Y242976D01*
X3835958Y252018D01*
X3845001Y262331D01*
X3852621Y273710D01*
X3858666Y285953D01*
X3863035Y298907D01*
X3865727Y312318D01*
X3866642Y325983D01*
X3865727Y339648D01*
X3863035Y353060D01*
X3858666Y366014D01*
X3852621Y378307D01*
X3845001Y389686D01*
X3835958Y399999D01*
X3825697Y408990D01*
X3814318Y416610D01*
X3802024Y422656D01*
X3789070Y427075D01*
X3775659Y429717D01*
X3761994Y430631D01*
X3748328Y429717D01*
X3734917Y427075D01*
X3721963Y422656D01*
X3709670Y416610D01*
X3698290Y408990D01*
X3688029Y399999D01*
X3678986Y389686D01*
X3671366Y378307D01*
X3665321Y366014D01*
X3660952Y353060D01*
X3658260Y339648D01*
X3657346Y325983D01*
X3658260Y312318D01*
X3660952Y298907D01*
X3665321Y285953D01*
X3671366Y273710D01*
X3678986Y262331D01*
X3688029Y252018D01*
X3698290Y242976D01*
X3709670Y235407D01*
X3721963Y229362D01*
X3734917Y224942D01*
X3748328Y222250D01*
G37*
G36*
X3507994Y221386D02*
G01*
X3521659Y222250D01*
X3535070Y224942D01*
X3548024Y229362D01*
X3560318Y235407D01*
X3571697Y242976D01*
X3581958Y252018D01*
X3591001Y262331D01*
X3598621Y273710D01*
X3604666Y285953D01*
X3609035Y298907D01*
X3611727Y312318D01*
X3612642Y325983D01*
X3611727Y339648D01*
X3609035Y353060D01*
X3604666Y366014D01*
X3598621Y378307D01*
X3591001Y389686D01*
X3581958Y399999D01*
X3571697Y408990D01*
X3560318Y416610D01*
X3548024Y422656D01*
X3535070Y427075D01*
X3521659Y429717D01*
X3507994Y430631D01*
X3494328Y429717D01*
X3480917Y427075D01*
X3467963Y422656D01*
X3455670Y416610D01*
X3444290Y408990D01*
X3434029Y399999D01*
X3424986Y389686D01*
X3417366Y378307D01*
X3411321Y366014D01*
X3406952Y353060D01*
X3404260Y339648D01*
X3403346Y325983D01*
X3404260Y312318D01*
X3406952Y298907D01*
X3411321Y285953D01*
X3417366Y273710D01*
X3424986Y262331D01*
X3434029Y252018D01*
X3444290Y242976D01*
X3455670Y235407D01*
X3467963Y229362D01*
X3480917Y224942D01*
X3494328Y222250D01*
G37*
G36*
X2237994Y221386D02*
G01*
X2251659Y222250D01*
X2265070Y224942D01*
X2278024Y229362D01*
X2290318Y235407D01*
X2301697Y242976D01*
X2311958Y252018D01*
X2321001Y262331D01*
X2328621Y273710D01*
X2334666Y285953D01*
X2339035Y298907D01*
X2341727Y312318D01*
X2342642Y325983D01*
X2341727Y339648D01*
X2339035Y353060D01*
X2334666Y366014D01*
X2328621Y378307D01*
X2321001Y389686D01*
X2311958Y399999D01*
X2301697Y408990D01*
X2290318Y416610D01*
X2278024Y422656D01*
X2265070Y427075D01*
X2251659Y429717D01*
X2237994Y430631D01*
X2224328Y429717D01*
X2210917Y427075D01*
X2197963Y422656D01*
X2185670Y416610D01*
X2174290Y408990D01*
X2164029Y399999D01*
X2154986Y389686D01*
X2147366Y378307D01*
X2141321Y366014D01*
X2136952Y353060D01*
X2134260Y339648D01*
X2133346Y325983D01*
X2134260Y312318D01*
X2136952Y298907D01*
X2141321Y285953D01*
X2147366Y273710D01*
X2154986Y262331D01*
X2164029Y252018D01*
X2174290Y242976D01*
X2185670Y235407D01*
X2197963Y229362D01*
X2210917Y224942D01*
X2224328Y222250D01*
G37*
G36*
X4015994Y221386D02*
G01*
X4029659Y222250D01*
X4043070Y224942D01*
X4056024Y229362D01*
X4068318Y235407D01*
X4079697Y242976D01*
X4089958Y252018D01*
X4099001Y262331D01*
X4106621Y273710D01*
X4112666Y285953D01*
X4117035Y298907D01*
X4119727Y312318D01*
X4120642Y325983D01*
X4119727Y339648D01*
X4117035Y353060D01*
X4112666Y366014D01*
X4106621Y378307D01*
X4099001Y389686D01*
X4089958Y399999D01*
X4079697Y408990D01*
X4068318Y416610D01*
X4056024Y422656D01*
X4043070Y427075D01*
X4029659Y429717D01*
X4015994Y430631D01*
X4002328Y429717D01*
X3988917Y427075D01*
X3975963Y422656D01*
X3963670Y416610D01*
X3952290Y408990D01*
X3942029Y399999D01*
X3932986Y389686D01*
X3925366Y378307D01*
X3919321Y366014D01*
X3914952Y353060D01*
X3912260Y339648D01*
X3911346Y325983D01*
X3912260Y312318D01*
X3914952Y298907D01*
X3919321Y285953D01*
X3925366Y273710D01*
X3932986Y262331D01*
X3942029Y252018D01*
X3952290Y242976D01*
X3963670Y235407D01*
X3975963Y229362D01*
X3988917Y224942D01*
X4002328Y222250D01*
G37*
G36*
X3253994Y221386D02*
G01*
X3267659Y222250D01*
X3281070Y224942D01*
X3294024Y229362D01*
X3306318Y235407D01*
X3317697Y242976D01*
X3327958Y252018D01*
X3337001Y262331D01*
X3344621Y273710D01*
X3350666Y285953D01*
X3355035Y298907D01*
X3357727Y312318D01*
X3358642Y325983D01*
X3357727Y339648D01*
X3355035Y353060D01*
X3350666Y366014D01*
X3344621Y378307D01*
X3337001Y389686D01*
X3327958Y399999D01*
X3317697Y408990D01*
X3306318Y416610D01*
X3294024Y422656D01*
X3281070Y427075D01*
X3267659Y429717D01*
X3253994Y430631D01*
X3240328Y429717D01*
X3226917Y427075D01*
X3213963Y422656D01*
X3201670Y416610D01*
X3190290Y408990D01*
X3180029Y399999D01*
X3170986Y389686D01*
X3163366Y378307D01*
X3157321Y366014D01*
X3152952Y353060D01*
X3150260Y339648D01*
X3149346Y325983D01*
X3150260Y312318D01*
X3152952Y298907D01*
X3157321Y285953D01*
X3163366Y273710D01*
X3170986Y262331D01*
X3180029Y252018D01*
X3190290Y242976D01*
X3201670Y235407D01*
X3213963Y229362D01*
X3226917Y224942D01*
X3240328Y222250D01*
G37*
G36*
X2491994Y221386D02*
G01*
X2505659Y222250D01*
X2519070Y224942D01*
X2532024Y229362D01*
X2544318Y235407D01*
X2555697Y242976D01*
X2565958Y252018D01*
X2575001Y262331D01*
X2582621Y273710D01*
X2588666Y285953D01*
X2593035Y298907D01*
X2595727Y312318D01*
X2596642Y325983D01*
X2595727Y339648D01*
X2593035Y353060D01*
X2588666Y366014D01*
X2582621Y378307D01*
X2575001Y389686D01*
X2565958Y399999D01*
X2555697Y408990D01*
X2544318Y416610D01*
X2532024Y422656D01*
X2519070Y427075D01*
X2505659Y429717D01*
X2491994Y430631D01*
X2478328Y429717D01*
X2464917Y427075D01*
X2451963Y422656D01*
X2439670Y416610D01*
X2428290Y408990D01*
X2418029Y399999D01*
X2408986Y389686D01*
X2401366Y378307D01*
X2395321Y366014D01*
X2390952Y353060D01*
X2388260Y339648D01*
X2387346Y325983D01*
X2388260Y312318D01*
X2390952Y298907D01*
X2395321Y285953D01*
X2401366Y273710D01*
X2408986Y262331D01*
X2418029Y252018D01*
X2428290Y242976D01*
X2439670Y235407D01*
X2451963Y229362D01*
X2464917Y224942D01*
X2478328Y222250D01*
G37*
G36*
X2999994Y221386D02*
G01*
X3013659Y222250D01*
X3027070Y224942D01*
X3040024Y229362D01*
X3052318Y235407D01*
X3063697Y242976D01*
X3073958Y252018D01*
X3083001Y262331D01*
X3090621Y273710D01*
X3096666Y285953D01*
X3101035Y298907D01*
X3103727Y312318D01*
X3104642Y325983D01*
X3103727Y339648D01*
X3101035Y353060D01*
X3096666Y366014D01*
X3090621Y378307D01*
X3083001Y389686D01*
X3073958Y399999D01*
X3063697Y408990D01*
X3052318Y416610D01*
X3040024Y422656D01*
X3027070Y427075D01*
X3013659Y429717D01*
X2999994Y430631D01*
X2986328Y429717D01*
X2972917Y427075D01*
X2959963Y422656D01*
X2947670Y416610D01*
X2936290Y408990D01*
X2926029Y399999D01*
X2916986Y389686D01*
X2909366Y378307D01*
X2903321Y366014D01*
X2898952Y353060D01*
X2896260Y339648D01*
X2895346Y325983D01*
X2896260Y312318D01*
X2898952Y298907D01*
X2903321Y285953D01*
X2909366Y273710D01*
X2916986Y262331D01*
X2926029Y252018D01*
X2936290Y242976D01*
X2947670Y235407D01*
X2959963Y229362D01*
X2972917Y224942D01*
X2986328Y222250D01*
G37*
G36*
X2745994Y221386D02*
G01*
X2759659Y222250D01*
X2773070Y224942D01*
X2786024Y229362D01*
X2798318Y235407D01*
X2809697Y242976D01*
X2819958Y252018D01*
X2829001Y262331D01*
X2836621Y273710D01*
X2842666Y285953D01*
X2847035Y298907D01*
X2849727Y312318D01*
X2850642Y325983D01*
X2849727Y339648D01*
X2847035Y353060D01*
X2842666Y366014D01*
X2836621Y378307D01*
X2829001Y389686D01*
X2819958Y399999D01*
X2809697Y408990D01*
X2798318Y416610D01*
X2786024Y422656D01*
X2773070Y427075D01*
X2759659Y429717D01*
X2745994Y430631D01*
X2732328Y429717D01*
X2718917Y427075D01*
X2705963Y422656D01*
X2693670Y416610D01*
X2682290Y408990D01*
X2672029Y399999D01*
X2662986Y389686D01*
X2655366Y378307D01*
X2649321Y366014D01*
X2644952Y353060D01*
X2642260Y339648D01*
X2641346Y325983D01*
X2642260Y312318D01*
X2644952Y298907D01*
X2649321Y285953D01*
X2655366Y273710D01*
X2662986Y262331D01*
X2672029Y252018D01*
X2682290Y242976D01*
X2693670Y235407D01*
X2705963Y229362D01*
X2718917Y224942D01*
X2732328Y222250D01*
G37*
G36*
X4269994Y221386D02*
G01*
X4283659Y222250D01*
X4297070Y224942D01*
X4310024Y229362D01*
X4322318Y235407D01*
X4333697Y242976D01*
X4343958Y252018D01*
X4353001Y262331D01*
X4360621Y273710D01*
X4366666Y285953D01*
X4371035Y298907D01*
X4373727Y312318D01*
X4374642Y325983D01*
X4373727Y339648D01*
X4371035Y353060D01*
X4366666Y366014D01*
X4360621Y378307D01*
X4353001Y389686D01*
X4343958Y399999D01*
X4333697Y408990D01*
X4322318Y416610D01*
X4310024Y422656D01*
X4297070Y427075D01*
X4283659Y429717D01*
X4269994Y430631D01*
X4256328Y429717D01*
X4242917Y427075D01*
X4229963Y422656D01*
X4217670Y416610D01*
X4206290Y408990D01*
X4196029Y399999D01*
X4186986Y389686D01*
X4179366Y378307D01*
X4173321Y366014D01*
X4168952Y353060D01*
X4166260Y339648D01*
X4165346Y325983D01*
X4166260Y312318D01*
X4168952Y298907D01*
X4173321Y285953D01*
X4179366Y273710D01*
X4186986Y262331D01*
X4196029Y252018D01*
X4206290Y242976D01*
X4217670Y235407D01*
X4229963Y229362D01*
X4242917Y224942D01*
X4256328Y222250D01*
G37*
G36*
X4478274Y232156D02*
G01*
X4478274Y280263D01*
X4430115Y280263D01*
X4433366Y273710D01*
X4440986Y262331D01*
X4450029Y252018D01*
X4460290Y242976D01*
X4471670Y235407D01*
G37*
G36*
X4569714Y232156D02*
G01*
X4576318Y235407D01*
X4587697Y242976D01*
X4597958Y252018D01*
X4607001Y262331D01*
X4614621Y273710D01*
X4617872Y280263D01*
X4569714Y280263D01*
G37*
G36*
X4430115Y371703D02*
G01*
X4478274Y371703D01*
X4478274Y419862D01*
X4471670Y416610D01*
X4460290Y408990D01*
X4450029Y399999D01*
X4440986Y389686D01*
X4433366Y378307D01*
G37*
G36*
X4569714Y371703D02*
G01*
X4617872Y371703D01*
X4614621Y378307D01*
X4607001Y389686D01*
X4597958Y399999D01*
X4587697Y408990D01*
X4576318Y416610D01*
X4569714Y419862D01*
G37*
G36*
X656336Y656336D02*
G01*
X785672Y656336D01*
X779018Y668375D01*
X765149Y689508D01*
X749655Y709472D01*
X732688Y728218D01*
X714298Y745540D01*
X694588Y761390D01*
X673760Y775716D01*
X656336Y785774D01*
G37*
G36*
X5656326Y656336D02*
G01*
X5785662Y656336D01*
X5779008Y668375D01*
X5765139Y689508D01*
X5749645Y709472D01*
X5732678Y728218D01*
X5714288Y745540D01*
X5694578Y761390D01*
X5673750Y775716D01*
X5656326Y785774D01*
G37*
G36*
X214121Y656336D02*
G01*
X343662Y656336D01*
X343662Y785723D01*
X337058Y782218D01*
X315671Y768756D01*
X295402Y753668D01*
X276352Y737057D01*
X258673Y719023D01*
X242417Y699668D01*
X227736Y679094D01*
X214629Y657453D01*
G37*
G36*
X5214112Y656336D02*
G01*
X5343652Y656336D01*
X5343652Y785723D01*
X5337048Y782218D01*
X5315661Y768756D01*
X5295392Y753668D01*
X5276342Y737057D01*
X5258663Y719023D01*
X5242407Y699668D01*
X5227726Y679094D01*
X5214620Y657453D01*
G37*
G36*
X4699812Y1745335D02*
G01*
X4856175Y1745335D01*
X4862474Y1746046D01*
X4867960Y1747977D01*
X4872837Y1751075D01*
X4876952Y1755139D01*
X4880000Y1760067D01*
X4881930Y1765503D01*
X4882642Y1771802D01*
X4882642Y1928164D01*
X4881930Y1934464D01*
X4880000Y1939950D01*
X4876952Y1944827D01*
X4872837Y1948942D01*
X4867960Y1952040D01*
X4862474Y1953920D01*
X4856175Y1954631D01*
X4699812Y1954631D01*
X4693513Y1953920D01*
X4688027Y1952040D01*
X4683150Y1948942D01*
X4679035Y1944827D01*
X4675987Y1939950D01*
X4674057Y1934464D01*
X4673346Y1928164D01*
X4673346Y1771802D01*
X4674057Y1765503D01*
X4675987Y1760067D01*
X4679035Y1755139D01*
X4683150Y1751075D01*
X4688027Y1747977D01*
X4693513Y1746046D01*
G37*
G36*
X1475994Y1745386D02*
G01*
X1489659Y1746250D01*
X1503070Y1748942D01*
X1516024Y1753311D01*
X1528318Y1759407D01*
X1539697Y1766976D01*
X1549958Y1776018D01*
X1559001Y1786280D01*
X1566621Y1797659D01*
X1572666Y1809953D01*
X1577035Y1822907D01*
X1579727Y1836318D01*
X1580642Y1849983D01*
X1579727Y1863648D01*
X1577035Y1877060D01*
X1572666Y1890014D01*
X1566621Y1902307D01*
X1559001Y1913686D01*
X1549958Y1923999D01*
X1539697Y1932990D01*
X1528318Y1940610D01*
X1516024Y1946656D01*
X1503070Y1951075D01*
X1489659Y1953717D01*
X1475994Y1954631D01*
X1462328Y1953717D01*
X1448917Y1951075D01*
X1435963Y1946656D01*
X1423670Y1940610D01*
X1412290Y1932990D01*
X1402029Y1923999D01*
X1392986Y1913686D01*
X1385366Y1902307D01*
X1379321Y1890014D01*
X1374952Y1877060D01*
X1372260Y1863648D01*
X1371346Y1849983D01*
X1372260Y1836318D01*
X1374952Y1822907D01*
X1379321Y1809953D01*
X1385366Y1797659D01*
X1392986Y1786280D01*
X1402029Y1776018D01*
X1412290Y1766976D01*
X1423670Y1759407D01*
X1435963Y1753311D01*
X1448917Y1748942D01*
X1462328Y1746250D01*
G37*
G36*
X1729993Y1745386D02*
G01*
X1743659Y1746250D01*
X1757070Y1748942D01*
X1770024Y1753311D01*
X1782318Y1759407D01*
X1793697Y1766976D01*
X1803958Y1776018D01*
X1813001Y1786280D01*
X1820621Y1797659D01*
X1826666Y1809953D01*
X1831035Y1822907D01*
X1833727Y1836318D01*
X1834642Y1849983D01*
X1833727Y1863648D01*
X1831035Y1877060D01*
X1826666Y1890014D01*
X1820621Y1902307D01*
X1813001Y1913686D01*
X1803958Y1923999D01*
X1793697Y1932990D01*
X1782318Y1940610D01*
X1770024Y1946656D01*
X1757070Y1951075D01*
X1743659Y1953717D01*
X1729993Y1954631D01*
X1716328Y1953717D01*
X1702917Y1951075D01*
X1689963Y1946656D01*
X1677670Y1940610D01*
X1666290Y1932990D01*
X1656029Y1923999D01*
X1646986Y1913686D01*
X1639366Y1902307D01*
X1633321Y1890014D01*
X1628952Y1877060D01*
X1626260Y1863648D01*
X1625346Y1849983D01*
X1626260Y1836318D01*
X1628952Y1822907D01*
X1633321Y1809953D01*
X1639366Y1797659D01*
X1646986Y1786280D01*
X1656029Y1776018D01*
X1666290Y1766976D01*
X1677670Y1759407D01*
X1689963Y1753311D01*
X1702917Y1748942D01*
X1716328Y1746250D01*
G37*
G36*
X1221994Y1745386D02*
G01*
X1235659Y1746250D01*
X1249070Y1748942D01*
X1262024Y1753311D01*
X1274318Y1759407D01*
X1285697Y1766976D01*
X1295958Y1776018D01*
X1305001Y1786280D01*
X1312621Y1797659D01*
X1318666Y1809953D01*
X1323035Y1822907D01*
X1325727Y1836318D01*
X1326642Y1849983D01*
X1325727Y1863648D01*
X1323035Y1877060D01*
X1318666Y1890014D01*
X1312621Y1902307D01*
X1305001Y1913686D01*
X1295958Y1923999D01*
X1285697Y1932990D01*
X1274318Y1940610D01*
X1262024Y1946656D01*
X1249070Y1951075D01*
X1235659Y1953717D01*
X1221994Y1954631D01*
X1208328Y1953717D01*
X1194917Y1951075D01*
X1181963Y1946656D01*
X1169670Y1940610D01*
X1158290Y1932990D01*
X1148029Y1923999D01*
X1138986Y1913686D01*
X1131366Y1902307D01*
X1125321Y1890014D01*
X1120952Y1877060D01*
X1118260Y1863648D01*
X1117346Y1849983D01*
X1118260Y1836318D01*
X1120952Y1822907D01*
X1125321Y1809953D01*
X1131366Y1797659D01*
X1138986Y1786280D01*
X1148029Y1776018D01*
X1158290Y1766976D01*
X1169670Y1759407D01*
X1181963Y1753311D01*
X1194917Y1748942D01*
X1208328Y1746250D01*
G37*
G36*
X1983993Y1745386D02*
G01*
X1997659Y1746250D01*
X2011070Y1748942D01*
X2024024Y1753311D01*
X2036318Y1759407D01*
X2047697Y1766976D01*
X2057958Y1776018D01*
X2067001Y1786280D01*
X2074621Y1797659D01*
X2080666Y1809953D01*
X2085035Y1822907D01*
X2087727Y1836318D01*
X2088642Y1849983D01*
X2087727Y1863648D01*
X2085035Y1877060D01*
X2080666Y1890014D01*
X2074621Y1902307D01*
X2067001Y1913686D01*
X2057958Y1923999D01*
X2047697Y1932990D01*
X2036318Y1940610D01*
X2024024Y1946656D01*
X2011070Y1951075D01*
X1997659Y1953717D01*
X1983993Y1954631D01*
X1970328Y1953717D01*
X1956917Y1951075D01*
X1943963Y1946656D01*
X1931670Y1940610D01*
X1920290Y1932990D01*
X1910029Y1923999D01*
X1900986Y1913686D01*
X1893366Y1902307D01*
X1887321Y1890014D01*
X1882952Y1877060D01*
X1880260Y1863648D01*
X1879346Y1849983D01*
X1880260Y1836318D01*
X1882952Y1822907D01*
X1887321Y1809953D01*
X1893366Y1797659D01*
X1900986Y1786280D01*
X1910029Y1776018D01*
X1920290Y1766976D01*
X1931670Y1759407D01*
X1943963Y1753311D01*
X1956917Y1748942D01*
X1970328Y1746250D01*
G37*
G36*
X4269994Y1745386D02*
G01*
X4283659Y1746250D01*
X4297070Y1748942D01*
X4310024Y1753311D01*
X4322318Y1759407D01*
X4333697Y1766976D01*
X4343958Y1776018D01*
X4353001Y1786280D01*
X4360621Y1797659D01*
X4366666Y1809953D01*
X4371035Y1822907D01*
X4373727Y1836318D01*
X4374642Y1849983D01*
X4373727Y1863648D01*
X4371035Y1877060D01*
X4366666Y1890014D01*
X4360621Y1902307D01*
X4353001Y1913686D01*
X4343958Y1923999D01*
X4333697Y1932990D01*
X4322318Y1940610D01*
X4310024Y1946656D01*
X4297070Y1951075D01*
X4283659Y1953717D01*
X4269994Y1954631D01*
X4256328Y1953717D01*
X4242917Y1951075D01*
X4229963Y1946656D01*
X4217670Y1940610D01*
X4206290Y1932990D01*
X4196029Y1923999D01*
X4186986Y1913686D01*
X4179366Y1902307D01*
X4173321Y1890014D01*
X4168952Y1877060D01*
X4166260Y1863648D01*
X4165346Y1849983D01*
X4166260Y1836318D01*
X4168952Y1822907D01*
X4173321Y1809953D01*
X4179366Y1797659D01*
X4186986Y1786280D01*
X4196029Y1776018D01*
X4206290Y1766976D01*
X4217670Y1759407D01*
X4229963Y1753311D01*
X4242917Y1748942D01*
X4256328Y1746250D01*
G37*
G36*
X3253994Y1745386D02*
G01*
X3267659Y1746250D01*
X3281070Y1748942D01*
X3294024Y1753311D01*
X3306318Y1759407D01*
X3317697Y1766976D01*
X3327958Y1776018D01*
X3337001Y1786280D01*
X3344621Y1797659D01*
X3350666Y1809953D01*
X3355035Y1822907D01*
X3357727Y1836318D01*
X3358642Y1849983D01*
X3357727Y1863648D01*
X3355035Y1877060D01*
X3350666Y1890014D01*
X3344621Y1902307D01*
X3337001Y1913686D01*
X3327958Y1923999D01*
X3317697Y1932990D01*
X3306318Y1940610D01*
X3294024Y1946656D01*
X3281070Y1951075D01*
X3267659Y1953717D01*
X3253994Y1954631D01*
X3240328Y1953717D01*
X3226917Y1951075D01*
X3213963Y1946656D01*
X3201670Y1940610D01*
X3190290Y1932990D01*
X3180029Y1923999D01*
X3170986Y1913686D01*
X3163366Y1902307D01*
X3157321Y1890014D01*
X3152952Y1877060D01*
X3150260Y1863648D01*
X3149346Y1849983D01*
X3150260Y1836318D01*
X3152952Y1822907D01*
X3157321Y1809953D01*
X3163366Y1797659D01*
X3170986Y1786280D01*
X3180029Y1776018D01*
X3190290Y1766976D01*
X3201670Y1759407D01*
X3213963Y1753311D01*
X3226917Y1748942D01*
X3240328Y1746250D01*
G37*
G36*
X4523994Y1745386D02*
G01*
X4537659Y1746250D01*
X4551070Y1748942D01*
X4564024Y1753311D01*
X4576318Y1759407D01*
X4587697Y1766976D01*
X4597958Y1776018D01*
X4607001Y1786280D01*
X4614621Y1797659D01*
X4620666Y1809953D01*
X4625035Y1822907D01*
X4627727Y1836318D01*
X4628642Y1849983D01*
X4627727Y1863648D01*
X4625035Y1877060D01*
X4620666Y1890014D01*
X4614621Y1902307D01*
X4607001Y1913686D01*
X4597958Y1923999D01*
X4587697Y1932990D01*
X4576318Y1940610D01*
X4564024Y1946656D01*
X4551070Y1951075D01*
X4537659Y1953717D01*
X4523994Y1954631D01*
X4510328Y1953717D01*
X4496917Y1951075D01*
X4483963Y1946656D01*
X4471670Y1940610D01*
X4460290Y1932990D01*
X4450029Y1923999D01*
X4440986Y1913686D01*
X4433366Y1902307D01*
X4427321Y1890014D01*
X4422952Y1877060D01*
X4420260Y1863648D01*
X4419346Y1849983D01*
X4420260Y1836318D01*
X4422952Y1822907D01*
X4427321Y1809953D01*
X4433366Y1797659D01*
X4440986Y1786280D01*
X4450029Y1776018D01*
X4460290Y1766976D01*
X4471670Y1759407D01*
X4483963Y1753311D01*
X4496917Y1748942D01*
X4510328Y1746250D01*
G37*
G36*
X2999994Y1745386D02*
G01*
X3013659Y1746250D01*
X3027070Y1748942D01*
X3040024Y1753311D01*
X3052318Y1759407D01*
X3063697Y1766976D01*
X3073958Y1776018D01*
X3083001Y1786280D01*
X3090621Y1797659D01*
X3096666Y1809953D01*
X3101035Y1822907D01*
X3103727Y1836318D01*
X3104642Y1849983D01*
X3103727Y1863648D01*
X3101035Y1877060D01*
X3098190Y1885594D01*
X3097631Y1889302D01*
X3098495Y1892909D01*
X3100628Y1896008D01*
X3344062Y2139442D01*
X3347313Y2141677D01*
X3351225Y2142439D01*
X3355086Y2141677D01*
X3358387Y2139442D01*
X3360623Y2136140D01*
X3361385Y2132279D01*
X3361385Y1958492D01*
X3362147Y1950466D01*
X3364382Y1943252D01*
X3367938Y1936597D01*
X3373018Y1930349D01*
X3407359Y1896008D01*
X3409492Y1892909D01*
X3410356Y1889302D01*
X3409797Y1885594D01*
X3406952Y1877060D01*
X3404260Y1863648D01*
X3403346Y1849983D01*
X3404260Y1836318D01*
X3406952Y1822907D01*
X3411321Y1809953D01*
X3417366Y1797659D01*
X3424986Y1786280D01*
X3434029Y1776018D01*
X3444290Y1766976D01*
X3455670Y1759407D01*
X3467963Y1753311D01*
X3480917Y1748942D01*
X3494328Y1746250D01*
X3507994Y1745386D01*
X3521659Y1746250D01*
X3535070Y1748942D01*
X3548024Y1753311D01*
X3560318Y1759407D01*
X3571697Y1766976D01*
X3581958Y1776018D01*
X3591001Y1786280D01*
X3598621Y1797659D01*
X3604666Y1809953D01*
X3609035Y1822907D01*
X3611727Y1836318D01*
X3612642Y1849983D01*
X3611727Y1863648D01*
X3609035Y1877060D01*
X3604666Y1890014D01*
X3598621Y1902307D01*
X3591001Y1913686D01*
X3581958Y1923999D01*
X3571697Y1932990D01*
X3560318Y1940610D01*
X3548024Y1946656D01*
X3535070Y1951075D01*
X3521659Y1953717D01*
X3507994Y1954631D01*
X3494328Y1953717D01*
X3480917Y1951075D01*
X3472434Y1948180D01*
X3468725Y1947672D01*
X3465068Y1948484D01*
X3461969Y1950618D01*
X3441598Y1971039D01*
X3439363Y1974342D01*
X3438601Y1978202D01*
X3438601Y2403703D01*
X3439414Y2407666D01*
X3440887Y2409850D01*
X3439363Y2412136D01*
X3438601Y2416048D01*
X3438601Y2440940D01*
X3439363Y2444851D01*
X3440887Y2447137D01*
X3439414Y2449322D01*
X3438601Y2453284D01*
X3438601Y2530703D01*
X3439414Y2534666D01*
X3441700Y2538018D01*
X3445103Y2540152D01*
X3449116Y2540863D01*
X3453079Y2539898D01*
X3456330Y2537460D01*
X3458362Y2534005D01*
X3459022Y2532024D01*
X3463645Y2523540D01*
X3469538Y2515920D01*
X3476650Y2509367D01*
X3484727Y2504135D01*
X3491128Y2501290D01*
X3494328Y2499055D01*
X3496462Y2495804D01*
X3497224Y2491994D01*
X3496462Y2488184D01*
X3494328Y2484932D01*
X3491128Y2482697D01*
X3484727Y2479852D01*
X3476650Y2474620D01*
X3469538Y2468067D01*
X3463645Y2460447D01*
X3459022Y2451963D01*
X3458768Y2451100D01*
X3541014Y2451100D01*
X3541014Y2486863D01*
X3541826Y2490774D01*
X3544011Y2494076D01*
X3547313Y2496261D01*
X3551174Y2497023D01*
X3678326Y2497023D01*
X3682237Y2496261D01*
X3685540Y2494076D01*
X3687724Y2490774D01*
X3688486Y2486863D01*
X3688486Y2451100D01*
X3770782Y2451100D01*
X3770477Y2451963D01*
X3765905Y2460447D01*
X3759962Y2468067D01*
X3752900Y2474620D01*
X3744823Y2479852D01*
X3738372Y2482697D01*
X3735171Y2484932D01*
X3733037Y2488184D01*
X3732326Y2491994D01*
X3733037Y2495804D01*
X3735171Y2499055D01*
X3738372Y2501290D01*
X3743909Y2503728D01*
X3748024Y2504592D01*
X3805275Y2504592D01*
X3809949Y2504795D01*
X3814318Y2505354D01*
X3818686Y2506319D01*
X3822903Y2507640D01*
X3827018Y2509367D01*
X3830929Y2511399D01*
X3834688Y2513787D01*
X3838194Y2516479D01*
X3841648Y2519629D01*
X3854094Y2532075D01*
X3856482Y2533853D01*
X3859225Y2534869D01*
X3868318Y2536698D01*
X3878224Y2540457D01*
X3887419Y2545791D01*
X3894785Y2551836D01*
X3898137Y2553614D01*
X3901897Y2554071D01*
X3905605Y2553106D01*
X3908653Y2550871D01*
X3910685Y2547670D01*
X3911396Y2543962D01*
X3911396Y2058212D01*
X3910634Y2054301D01*
X3908399Y2051050D01*
X3808018Y1950618D01*
X3804920Y1948484D01*
X3801262Y1947672D01*
X3797554Y1948180D01*
X3789070Y1951075D01*
X3775659Y1953717D01*
X3761994Y1954631D01*
X3748328Y1953717D01*
X3734917Y1951075D01*
X3721963Y1946656D01*
X3709670Y1940610D01*
X3698290Y1932990D01*
X3688029Y1923999D01*
X3678986Y1913686D01*
X3671366Y1902307D01*
X3665321Y1890014D01*
X3660952Y1877060D01*
X3658260Y1863648D01*
X3657346Y1849983D01*
X3658260Y1836318D01*
X3660952Y1822907D01*
X3665321Y1809953D01*
X3671366Y1797659D01*
X3678986Y1786280D01*
X3688029Y1776018D01*
X3698290Y1766976D01*
X3709670Y1759407D01*
X3721963Y1753311D01*
X3734917Y1748942D01*
X3748328Y1746250D01*
X3761994Y1745386D01*
X3775659Y1746250D01*
X3789070Y1748942D01*
X3802024Y1753311D01*
X3814318Y1759407D01*
X3825697Y1766976D01*
X3835958Y1776018D01*
X3845001Y1786280D01*
X3852621Y1797659D01*
X3858666Y1809953D01*
X3863035Y1822907D01*
X3865727Y1836318D01*
X3866642Y1849983D01*
X3865727Y1863648D01*
X3863035Y1877060D01*
X3860190Y1885594D01*
X3859631Y1889302D01*
X3860495Y1892909D01*
X3862628Y1896008D01*
X3976928Y2010359D01*
X3982059Y2016607D01*
X3985615Y2023262D01*
X3987800Y2030475D01*
X3988612Y2038502D01*
X3988612Y2661869D01*
X3989476Y2665984D01*
X3991965Y2669438D01*
X3995623Y2671521D01*
X3999839Y2671978D01*
X4003852Y2670657D01*
X4007002Y2667863D01*
X4011066Y2662174D01*
X4014165Y2658872D01*
X4216095Y2456891D01*
X4218330Y2453589D01*
X4219092Y2449728D01*
X4219092Y2390546D01*
X4219803Y2384247D01*
X4221683Y2378760D01*
X4224782Y2373884D01*
X4228896Y2369769D01*
X4233773Y2366721D01*
X4237228Y2365502D01*
X4240784Y2363368D01*
X4243171Y2359964D01*
X4244035Y2355900D01*
X4244035Y2306370D01*
X4243171Y2302306D01*
X4240784Y2298954D01*
X4237228Y2296769D01*
X4233722Y2295550D01*
X4228795Y2292451D01*
X4224731Y2288387D01*
X4221632Y2283460D01*
X4219702Y2278024D01*
X4218990Y2271674D01*
X4218990Y2152853D01*
X4219702Y2146503D01*
X4221632Y2141067D01*
X4224731Y2136140D01*
X4228795Y2132076D01*
X4233722Y2128977D01*
X4239158Y2127097D01*
X4245508Y2126335D01*
X4344365Y2126335D01*
X4350664Y2127097D01*
X4356150Y2128977D01*
X4361027Y2132076D01*
X4365142Y2136140D01*
X4368190Y2141067D01*
X4370120Y2146503D01*
X4370832Y2152853D01*
X4370832Y2271674D01*
X4370120Y2278024D01*
X4368901Y2281529D01*
X4368342Y2285390D01*
X4369257Y2289200D01*
X4371594Y2292350D01*
X4374946Y2294432D01*
X4378807Y2295042D01*
X4382617Y2294178D01*
X4388154Y2291689D01*
X4392269Y2290419D01*
X4396587Y2289454D01*
X4401007Y2288844D01*
X4405680Y2288641D01*
X4519523Y2288641D01*
X4523689Y2287778D01*
X4527143Y2285288D01*
X4529226Y2281580D01*
X4529632Y2277364D01*
X4529023Y2271674D01*
X4529023Y2152853D01*
X4529734Y2146503D01*
X4531614Y2141067D01*
X4534712Y2136140D01*
X4538776Y2132076D01*
X4543704Y2128977D01*
X4549140Y2127097D01*
X4555490Y2126335D01*
X4654346Y2126335D01*
X4660646Y2127097D01*
X4666132Y2128977D01*
X4671009Y2132076D01*
X4675124Y2136140D01*
X4678222Y2141067D01*
X4680762Y2145842D01*
X4684166Y2148230D01*
X4688230Y2149094D01*
X4704994Y2149094D01*
X4707991Y2148636D01*
X4710785Y2147265D01*
X4717034Y2142947D01*
X4726635Y2138426D01*
X4736795Y2135428D01*
X4747361Y2134158D01*
X4757928Y2134616D01*
X4768342Y2136698D01*
X4778248Y2140458D01*
X4787392Y2145792D01*
X4795621Y2152497D01*
X4802632Y2160422D01*
X4808321Y2169363D01*
X4812487Y2179116D01*
X4815027Y2189429D01*
X4815890Y2199995D01*
X4815027Y2210562D01*
X4812487Y2220874D01*
X4808321Y2230628D01*
X4802632Y2239568D01*
X4795621Y2247493D01*
X4787392Y2254199D01*
X4778248Y2259533D01*
X4768342Y2263292D01*
X4757928Y2265375D01*
X4747361Y2265832D01*
X4736795Y2264562D01*
X4726635Y2261565D01*
X4717034Y2257044D01*
X4710785Y2252726D01*
X4707991Y2251354D01*
X4704994Y2250897D01*
X4690973Y2250897D01*
X4687112Y2251659D01*
X4683810Y2253894D01*
X4681575Y2257196D01*
X4680813Y2261057D01*
X4680813Y2271674D01*
X4680204Y2277364D01*
X4680610Y2281580D01*
X4682693Y2285288D01*
X4686147Y2287778D01*
X4690262Y2288641D01*
X4840732Y2288641D01*
X4844237Y2288032D01*
X4855718Y2281174D01*
X4864049Y2278176D01*
X4872786Y2276602D01*
X4881676Y2276602D01*
X4890414Y2278176D01*
X4898745Y2281174D01*
X4906416Y2285644D01*
X4913528Y2291638D01*
X5055514Y2433574D01*
X5058816Y2435809D01*
X5062677Y2436571D01*
X5415889Y2436571D01*
X5419953Y2435707D01*
X5423357Y2433320D01*
X5425490Y2429764D01*
X5426710Y2426258D01*
X5429808Y2421382D01*
X5433872Y2417267D01*
X5438800Y2414219D01*
X5444236Y2412288D01*
X5450535Y2411577D01*
X5549442Y2411577D01*
X5555742Y2412288D01*
X5561177Y2414219D01*
X5566105Y2417267D01*
X5570169Y2421382D01*
X5573268Y2426258D01*
X5575198Y2431745D01*
X5575909Y2438044D01*
X5575909Y2536901D01*
X5575198Y2543251D01*
X5573268Y2548686D01*
X5570220Y2553563D01*
X5565140Y2558592D01*
X5562803Y2562199D01*
X5562142Y2566517D01*
X5563362Y2570683D01*
X5569204Y2581452D01*
X5573166Y2592374D01*
X5575350Y2603804D01*
X5575808Y2615387D01*
X5574487Y2626918D01*
X5571388Y2638145D01*
X5566664Y2648762D01*
X5560314Y2658516D01*
X5552592Y2667152D01*
X5543651Y2674569D01*
X5533644Y2680512D01*
X5522874Y2684830D01*
X5511596Y2687472D01*
X5500014Y2688386D01*
X5488381Y2687472D01*
X5477103Y2684830D01*
X5466334Y2680512D01*
X5456326Y2674569D01*
X5447030Y2666796D01*
X5443575Y2664256D01*
X5439460Y2663393D01*
X5063032Y2663393D01*
X5059121Y2664155D01*
X5055819Y2666339D01*
X4901692Y2820466D01*
X4900066Y2822600D01*
X4899050Y2825038D01*
X4897780Y2829814D01*
X4894072Y2837840D01*
X4888941Y2845104D01*
X4882692Y2851353D01*
X4875428Y2856433D01*
X4867402Y2860192D01*
X4858816Y2862478D01*
X4849571Y2863291D01*
X4676444Y2863291D01*
X4672177Y2864205D01*
X4668723Y2866847D01*
X4666691Y2870657D01*
X4666386Y2874975D01*
X4667910Y2879039D01*
X4675124Y2886151D01*
X4678222Y2891078D01*
X4680762Y2895854D01*
X4684166Y2898241D01*
X4688230Y2899105D01*
X4704994Y2899105D01*
X4707991Y2898648D01*
X4710785Y2897276D01*
X4717034Y2892958D01*
X4726635Y2888386D01*
X4736795Y2885440D01*
X4747361Y2884170D01*
X4757928Y2884576D01*
X4768342Y2886710D01*
X4778248Y2890469D01*
X4787392Y2895803D01*
X4795621Y2902508D01*
X4802632Y2910433D01*
X4808321Y2919374D01*
X4812487Y2929128D01*
X4815027Y2939440D01*
X4815890Y2950006D01*
X4815027Y2960573D01*
X4812487Y2970834D01*
X4808321Y2980588D01*
X4802632Y2989580D01*
X4795621Y2997504D01*
X4787392Y3004210D01*
X4778248Y3009493D01*
X4768342Y3013252D01*
X4757928Y3015386D01*
X4747361Y3015792D01*
X4736795Y3014522D01*
X4726635Y3011576D01*
X4717034Y3007055D01*
X4710785Y3002686D01*
X4707991Y3001365D01*
X4704994Y3000908D01*
X4690973Y3000908D01*
X4687112Y3001670D01*
X4683810Y3003854D01*
X4681575Y3007156D01*
X4680813Y3011068D01*
X4680813Y3021685D01*
X4680102Y3028035D01*
X4678222Y3033471D01*
X4675124Y3038398D01*
X4671009Y3042462D01*
X4666132Y3045561D01*
X4660646Y3047441D01*
X4654346Y3048152D01*
X4555490Y3048152D01*
X4549140Y3047441D01*
X4543704Y3045561D01*
X4538776Y3042462D01*
X4534712Y3038398D01*
X4531614Y3033471D01*
X4529734Y3028035D01*
X4529023Y3021685D01*
X4529023Y2902813D01*
X4529734Y2896514D01*
X4531614Y2891078D01*
X4534712Y2886151D01*
X4541875Y2879039D01*
X4543450Y2874975D01*
X4543145Y2870657D01*
X4541113Y2866847D01*
X4537608Y2864205D01*
X4533392Y2863291D01*
X4428693Y2863291D01*
X4424832Y2864053D01*
X4421530Y2866288D01*
X4373778Y2913989D01*
X4371594Y2917291D01*
X4370832Y2921152D01*
X4370832Y3021685D01*
X4370120Y3028035D01*
X4368190Y3033471D01*
X4365142Y3038398D01*
X4361027Y3042462D01*
X4356150Y3045561D01*
X4350664Y3047441D01*
X4344365Y3048152D01*
X4285234Y3048152D01*
X4281322Y3048965D01*
X4278020Y3051149D01*
X4102862Y3226358D01*
X4099407Y3229508D01*
X4095902Y3232200D01*
X4092143Y3234588D01*
X4088180Y3236620D01*
X4084116Y3238347D01*
X4079849Y3239668D01*
X4075531Y3240633D01*
X4071112Y3241192D01*
X4066489Y3241395D01*
X3748024Y3241395D01*
X3743909Y3242259D01*
X3738372Y3244697D01*
X3735171Y3246932D01*
X3733037Y3250184D01*
X3732326Y3253994D01*
X3733037Y3257803D01*
X3735171Y3261055D01*
X3738372Y3263290D01*
X3744823Y3266135D01*
X3752900Y3271367D01*
X3759962Y3277920D01*
X3765905Y3285540D01*
X3770477Y3294024D01*
X3773627Y3303168D01*
X3775201Y3312668D01*
X3775201Y3322320D01*
X3773627Y3331819D01*
X3770477Y3340963D01*
X3765905Y3349447D01*
X3759962Y3357067D01*
X3752900Y3363620D01*
X3744823Y3368852D01*
X3738372Y3371697D01*
X3735171Y3373932D01*
X3733037Y3377184D01*
X3732326Y3380994D01*
X3733037Y3384804D01*
X3735171Y3388055D01*
X3738372Y3390290D01*
X3744823Y3393135D01*
X3752900Y3398367D01*
X3759962Y3404920D01*
X3765905Y3412540D01*
X3770477Y3421024D01*
X3770782Y3421887D01*
X3688486Y3421887D01*
X3688486Y3386124D01*
X3687724Y3382213D01*
X3685540Y3378911D01*
X3682237Y3376726D01*
X3678326Y3375964D01*
X3551174Y3375964D01*
X3547313Y3376726D01*
X3544011Y3378911D01*
X3541826Y3382213D01*
X3541014Y3386124D01*
X3541014Y3421887D01*
X3458768Y3421887D01*
X3459022Y3421024D01*
X3463645Y3412540D01*
X3469538Y3404920D01*
X3476650Y3398367D01*
X3484727Y3393135D01*
X3491128Y3390290D01*
X3494328Y3388055D01*
X3496462Y3384804D01*
X3497224Y3380994D01*
X3496462Y3377184D01*
X3494328Y3373932D01*
X3491128Y3371697D01*
X3484727Y3368852D01*
X3476650Y3363620D01*
X3469538Y3357067D01*
X3463645Y3349447D01*
X3459022Y3340963D01*
X3455924Y3331819D01*
X3454298Y3322320D01*
X3454298Y3312668D01*
X3455924Y3303168D01*
X3459022Y3294024D01*
X3463645Y3285540D01*
X3469538Y3277920D01*
X3476650Y3271367D01*
X3484727Y3266135D01*
X3491128Y3263290D01*
X3494328Y3261055D01*
X3496462Y3257803D01*
X3497224Y3253994D01*
X3496462Y3250184D01*
X3494328Y3246932D01*
X3491128Y3244697D01*
X3484727Y3241852D01*
X3476650Y3236620D01*
X3469538Y3230067D01*
X3463645Y3222447D01*
X3459022Y3213963D01*
X3455924Y3204819D01*
X3454298Y3195320D01*
X3454298Y3185668D01*
X3455924Y3176168D01*
X3459022Y3167024D01*
X3463645Y3158540D01*
X3469538Y3150920D01*
X3476650Y3144367D01*
X3484727Y3139135D01*
X3491128Y3136290D01*
X3494328Y3134055D01*
X3496462Y3130804D01*
X3497224Y3126994D01*
X3496462Y3123184D01*
X3494328Y3119932D01*
X3491128Y3117697D01*
X3484727Y3114852D01*
X3476650Y3109620D01*
X3469538Y3103067D01*
X3463645Y3095447D01*
X3459022Y3086963D01*
X3455924Y3077819D01*
X3454298Y3068320D01*
X3454298Y3058668D01*
X3455924Y3049168D01*
X3459022Y3040024D01*
X3463645Y3031540D01*
X3469538Y3023920D01*
X3476650Y3017367D01*
X3484727Y3012135D01*
X3491128Y3009290D01*
X3494328Y3007055D01*
X3496462Y3003804D01*
X3497224Y2999994D01*
X3496462Y2996184D01*
X3494328Y2992932D01*
X3491128Y2990697D01*
X3484727Y2987852D01*
X3476650Y2982620D01*
X3469538Y2976067D01*
X3463645Y2968447D01*
X3459022Y2959963D01*
X3455924Y2950819D01*
X3454298Y2941320D01*
X3454298Y2931668D01*
X3455924Y2922168D01*
X3459022Y2913024D01*
X3463645Y2904540D01*
X3469538Y2896920D01*
X3476650Y2890367D01*
X3484727Y2885135D01*
X3491128Y2882290D01*
X3494328Y2880055D01*
X3496462Y2876804D01*
X3497224Y2872994D01*
X3496462Y2869184D01*
X3494328Y2865932D01*
X3491128Y2863697D01*
X3484727Y2860852D01*
X3476650Y2855620D01*
X3471418Y2850794D01*
X3468268Y2848813D01*
X3464560Y2848102D01*
X3459987Y2848102D01*
X3451961Y2847289D01*
X3444748Y2845104D01*
X3438093Y2841548D01*
X3431844Y2836468D01*
X3300476Y2705049D01*
X3295345Y2698800D01*
X3291789Y2692146D01*
X3289604Y2684932D01*
X3288792Y2676906D01*
X3288792Y2606294D01*
X3288029Y2602433D01*
X3285794Y2599131D01*
X3282543Y2596896D01*
X3278632Y2596134D01*
X3106318Y2596134D01*
X3106318Y2179066D01*
X3249930Y2179066D01*
X3253841Y2178304D01*
X3257143Y2176119D01*
X3259328Y2172817D01*
X3260090Y2168906D01*
X3259328Y2165045D01*
X3257143Y2161743D01*
X3046018Y1950618D01*
X3042920Y1948484D01*
X3039262Y1947672D01*
X3035554Y1948180D01*
X3027070Y1951075D01*
X3013659Y1953717D01*
X2999994Y1954631D01*
X2986328Y1953717D01*
X2972917Y1951075D01*
X2959963Y1946656D01*
X2947670Y1940610D01*
X2936290Y1932990D01*
X2926029Y1923999D01*
X2916986Y1913686D01*
X2909366Y1902307D01*
X2903321Y1890014D01*
X2898952Y1877060D01*
X2896260Y1863648D01*
X2895346Y1849983D01*
X2896260Y1836318D01*
X2898952Y1822907D01*
X2903321Y1809953D01*
X2909366Y1797659D01*
X2916986Y1786280D01*
X2926029Y1776018D01*
X2936290Y1766976D01*
X2947670Y1759407D01*
X2959963Y1753311D01*
X2972917Y1748942D01*
X2986328Y1746250D01*
G37*
G36*
X214121Y4656328D02*
G01*
X343662Y4656328D01*
X343662Y4785715D01*
X337058Y4782210D01*
X315671Y4768748D01*
X295402Y4753660D01*
X276352Y4737049D01*
X258673Y4719015D01*
X242417Y4699660D01*
X227736Y4679086D01*
X214629Y4657445D01*
G37*
G36*
X5656326Y4656328D02*
G01*
X5785662Y4656328D01*
X5779008Y4668367D01*
X5765139Y4689500D01*
X5749645Y4709464D01*
X5732678Y4728210D01*
X5714288Y4745532D01*
X5694578Y4761382D01*
X5673750Y4775708D01*
X5656326Y4785766D01*
G37*
G36*
X656336Y4656328D02*
G01*
X785672Y4656328D01*
X779018Y4668367D01*
X765149Y4689500D01*
X749655Y4709464D01*
X732688Y4728210D01*
X714298Y4745532D01*
X694588Y4761382D01*
X673760Y4775708D01*
X656336Y4785766D01*
G37*
G36*
X1801368Y4653737D02*
G01*
X1965909Y4653737D01*
X1965909Y4801819D01*
X1965198Y4808169D01*
X1963267Y4813604D01*
X1960219Y4818532D01*
X1956104Y4822596D01*
X1951228Y4825695D01*
X1945741Y4827574D01*
X1939442Y4828286D01*
X1801368Y4828286D01*
G37*
G36*
X1334109Y4653737D02*
G01*
X1498650Y4653737D01*
X1498650Y4828286D01*
X1360576Y4828286D01*
X1354226Y4827574D01*
X1348790Y4825695D01*
X1343863Y4822596D01*
X1339799Y4818532D01*
X1336700Y4813604D01*
X1334820Y4808169D01*
X1334109Y4801819D01*
G37*
G36*
X4061714Y1756156D02*
G01*
X4068318Y1759407D01*
X4079697Y1766976D01*
X4089958Y1776018D01*
X4099001Y1786280D01*
X4106621Y1797659D01*
X4109872Y1804263D01*
X4061714Y1804263D01*
G37*
G36*
X3970274Y1756156D02*
G01*
X3970274Y1804263D01*
X3922115Y1804263D01*
X3925366Y1797659D01*
X3932986Y1786280D01*
X3942029Y1776018D01*
X3952290Y1766976D01*
X3963670Y1759407D01*
G37*
G36*
X3922115Y1895703D02*
G01*
X3970274Y1895703D01*
X3970274Y1943862D01*
X3963670Y1940610D01*
X3952290Y1932990D01*
X3942029Y1923999D01*
X3932986Y1913686D01*
X3925366Y1902307D01*
G37*
G36*
X4061714Y1895703D02*
G01*
X4109872Y1895703D01*
X4106621Y1902307D01*
X4099001Y1913686D01*
X4089958Y1923999D01*
X4079697Y1932990D01*
X4068318Y1940610D01*
X4061714Y1943862D01*
G37*
G36*
X2168144Y4481322D02*
G01*
X2233625Y4481322D01*
X2233625Y4562449D01*
X2231491Y4561484D01*
X2218486Y4553610D01*
X2206498Y4544212D01*
X2195779Y4533493D01*
X2186381Y4521504D01*
X2178507Y4508500D01*
X2172258Y4494631D01*
G37*
G36*
X2346350Y4481322D02*
G01*
X2411831Y4481322D01*
X2407716Y4494631D01*
X2401468Y4508500D01*
X2393594Y4521504D01*
X2384196Y4533493D01*
X2373477Y4544212D01*
X2361488Y4553610D01*
X2348484Y4561484D01*
X2346350Y4562449D01*
G37*
G36*
X3166364Y4481322D02*
G01*
X3231845Y4481322D01*
X3227730Y4494631D01*
X3221482Y4508500D01*
X3213608Y4521504D01*
X3204210Y4533493D01*
X3193491Y4544212D01*
X3181502Y4553610D01*
X3168497Y4561484D01*
X3166364Y4562449D01*
G37*
G36*
X2988157Y4481322D02*
G01*
X3053638Y4481322D01*
X3053638Y4562449D01*
X3051505Y4561484D01*
X3038500Y4553610D01*
X3026511Y4544212D01*
X3015792Y4533493D01*
X3006394Y4521504D01*
X2998520Y4508500D01*
X2992272Y4494631D01*
G37*
G36*
X4036364Y4461357D02*
G01*
X4096207Y4461357D01*
X4088536Y4474667D01*
X4079087Y4487316D01*
X4068267Y4498848D01*
X4056126Y4509008D01*
X4042918Y4517694D01*
X4036364Y4520996D01*
G37*
G36*
X3853789Y4461357D02*
G01*
X3913632Y4461357D01*
X3913632Y4520996D01*
X3907028Y4517694D01*
X3893820Y4509008D01*
X3881729Y4498848D01*
X3870909Y4487316D01*
X3861460Y4474667D01*
G37*
G36*
X3913632Y4278985D02*
G01*
X3913632Y4338624D01*
X3853789Y4338624D01*
X3861460Y4325315D01*
X3870909Y4312666D01*
X3881729Y4301134D01*
X3893820Y4290974D01*
X3907028Y4282287D01*
G37*
G36*
X4036364Y4278985D02*
G01*
X4042918Y4282287D01*
X4056126Y4290974D01*
X4068267Y4301134D01*
X4079087Y4312666D01*
X4088536Y4325315D01*
X4096207Y4338624D01*
X4036364Y4338624D01*
G37*
G36*
X3166364Y4237532D02*
G01*
X3168497Y4238498D01*
X3181502Y4246372D01*
X3193491Y4255770D01*
X3204210Y4266488D01*
X3213608Y4278477D01*
X3221482Y4291482D01*
X3227730Y4305350D01*
X3231845Y4318660D01*
X3166364Y4318660D01*
G37*
G36*
X2346350Y4237532D02*
G01*
X2348484Y4238498D01*
X2361488Y4246372D01*
X2373477Y4255770D01*
X2384196Y4266488D01*
X2393594Y4278477D01*
X2401468Y4291482D01*
X2407716Y4305350D01*
X2411831Y4318660D01*
X2346350Y4318660D01*
G37*
G36*
X3053638Y4237532D02*
G01*
X3053638Y4318660D01*
X2988157Y4318660D01*
X2992272Y4305350D01*
X2998520Y4291482D01*
X3006394Y4278477D01*
X3015792Y4266488D01*
X3026511Y4255770D01*
X3038500Y4246372D01*
X3051505Y4238498D01*
G37*
G36*
X2650540Y2179066D02*
G01*
X2793644Y2179066D01*
X2793644Y2596134D01*
X2624074Y2596134D01*
X2624074Y2205583D01*
X2624785Y2199233D01*
X2626715Y2193798D01*
X2629814Y2188870D01*
X2633878Y2184806D01*
X2638806Y2181707D01*
X2644241Y2179777D01*
G37*
G36*
X2233625Y4237532D02*
G01*
X2233625Y4318660D01*
X2168144Y4318660D01*
X2172258Y4305350D01*
X2178507Y4291482D01*
X2186381Y4278477D01*
X2195779Y4266488D01*
X2206498Y4255770D01*
X2218486Y4246372D01*
X2231491Y4238498D01*
G37*
G36*
X5343652Y4214266D02*
G01*
X5343652Y4343654D01*
X5214112Y4343654D01*
X5214620Y4342536D01*
X5227726Y4320895D01*
X5242407Y4300321D01*
X5258663Y4280966D01*
X5276342Y4262932D01*
X5295392Y4246321D01*
X5315661Y4231233D01*
X5337048Y4217771D01*
G37*
G36*
X3512972Y2370023D02*
G01*
X3541014Y2370023D01*
X3541014Y2405888D01*
X3458768Y2405888D01*
X3459022Y2405024D01*
X3463645Y2396540D01*
X3469538Y2388920D01*
X3476650Y2382367D01*
X3484727Y2377135D01*
X3493566Y2373223D01*
X3502914Y2370886D01*
G37*
G36*
X3688486Y2370023D02*
G01*
X3716578Y2370023D01*
X3726586Y2370886D01*
X3735984Y2373223D01*
X3744823Y2377135D01*
X3752900Y2382367D01*
X3759962Y2388920D01*
X3765905Y2396540D01*
X3770477Y2405024D01*
X3770782Y2405888D01*
X3688486Y2405888D01*
G37*
G36*
X2183434Y2370023D02*
G01*
X2211476Y2370023D01*
X2211476Y2405888D01*
X2129180Y2405888D01*
X2129485Y2405024D01*
X2134108Y2396540D01*
X2140000Y2388920D01*
X2147112Y2382367D01*
X2155190Y2377135D01*
X2164029Y2373223D01*
X2173376Y2370886D01*
G37*
G36*
X343662Y4214266D02*
G01*
X343662Y4343654D01*
X214121Y4343654D01*
X214629Y4342536D01*
X227736Y4320895D01*
X242417Y4300321D01*
X258673Y4280966D01*
X276352Y4262932D01*
X295402Y4246321D01*
X315671Y4231233D01*
X337058Y4217771D01*
G37*
G36*
X656336Y4214215D02*
G01*
X673760Y4224274D01*
X694588Y4238599D01*
X714298Y4254449D01*
X732688Y4271772D01*
X749655Y4290517D01*
X765149Y4310481D01*
X779018Y4331614D01*
X785672Y4343654D01*
X656336Y4343654D01*
G37*
G36*
X5656326Y4214215D02*
G01*
X5673750Y4224274D01*
X5694578Y4238599D01*
X5714288Y4254449D01*
X5732678Y4271772D01*
X5749645Y4290517D01*
X5765139Y4310481D01*
X5779008Y4331614D01*
X5785662Y4343654D01*
X5656326Y4343654D01*
G37*
G36*
X1801368Y4156506D02*
G01*
X1939442Y4156506D01*
X1945741Y4157218D01*
X1951228Y4159097D01*
X1956104Y4162196D01*
X1960219Y4166311D01*
X1963267Y4171187D01*
X1965198Y4176674D01*
X1965909Y4182973D01*
X1965909Y4331055D01*
X1801368Y4331055D01*
G37*
G36*
X1360576Y4156506D02*
G01*
X1498650Y4156506D01*
X1498650Y4331055D01*
X1334109Y4331055D01*
X1334109Y4182973D01*
X1334820Y4176674D01*
X1336700Y4171187D01*
X1339799Y4166311D01*
X1343863Y4162196D01*
X1348790Y4159097D01*
X1354226Y4157218D01*
G37*
G36*
X3458768Y3594100D02*
G01*
X3541014Y3594100D01*
X3541014Y3629964D01*
X3512972Y3629964D01*
X3502914Y3629101D01*
X3493566Y3626764D01*
X3484727Y3622852D01*
X3476650Y3617620D01*
X3469538Y3611067D01*
X3463645Y3603447D01*
X3459022Y3594963D01*
G37*
G36*
X3688486Y3594100D02*
G01*
X3770782Y3594100D01*
X3770477Y3594963D01*
X3765905Y3603447D01*
X3759962Y3611067D01*
X3752900Y3617620D01*
X3744823Y3622852D01*
X3735984Y3626764D01*
X3726586Y3629101D01*
X3716578Y3629964D01*
X3688486Y3629964D01*
G37*
G36*
X2358948Y3594100D02*
G01*
X2441244Y3594100D01*
X2440940Y3594963D01*
X2436368Y3603447D01*
X2430424Y3611067D01*
X2423312Y3617620D01*
X2415235Y3622852D01*
X2406396Y3626764D01*
X2397048Y3629101D01*
X2387041Y3629964D01*
X2358948Y3629964D01*
G37*
G36*
X5538063Y3591356D02*
G01*
X5662625Y3591356D01*
X5662625Y3619398D01*
X5661914Y3625748D01*
X5659983Y3631184D01*
X5656935Y3636111D01*
X5652820Y3640175D01*
X5647944Y3643274D01*
X5642457Y3645204D01*
X5636158Y3645915D01*
X5538063Y3645915D01*
G37*
G36*
X5190794Y3591356D02*
G01*
X5315356Y3591356D01*
X5315356Y3645915D01*
X5217261Y3645915D01*
X5210962Y3645204D01*
X5205476Y3643274D01*
X5200599Y3640175D01*
X5196484Y3636111D01*
X5193436Y3631184D01*
X5191506Y3625748D01*
X5190794Y3619398D01*
G37*
G36*
X534619Y3591356D02*
G01*
X659180Y3591356D01*
X659180Y3619398D01*
X658469Y3625748D01*
X656539Y3631184D01*
X653491Y3636111D01*
X649376Y3640175D01*
X644499Y3643274D01*
X639013Y3645204D01*
X632714Y3645915D01*
X534619Y3645915D01*
G37*
G36*
X187350Y3591356D02*
G01*
X311912Y3591356D01*
X311912Y3645915D01*
X213867Y3645915D01*
X207517Y3645204D01*
X202082Y3643274D01*
X197154Y3640175D01*
X193090Y3636111D01*
X189992Y3631184D01*
X188061Y3625748D01*
X187350Y3619398D01*
G37*
G36*
X2129180Y3467100D02*
G01*
X2211476Y3467100D01*
X2211476Y3548887D01*
X2129180Y3548887D01*
X2129485Y3548024D01*
X2134108Y3539540D01*
X2140000Y3531920D01*
X2147112Y3525367D01*
X2155190Y3520135D01*
X2161590Y3517290D01*
X2164791Y3515055D01*
X2166924Y3511804D01*
X2167686Y3507994D01*
X2166924Y3504184D01*
X2164791Y3500932D01*
X2161590Y3498697D01*
X2155190Y3495852D01*
X2147112Y3490620D01*
X2140000Y3484067D01*
X2134108Y3476447D01*
X2129485Y3467963D01*
G37*
G36*
X656336Y214223D02*
G01*
X673760Y224282D01*
X694588Y238607D01*
X714298Y254457D01*
X732688Y271780D01*
X749655Y290525D01*
X765149Y310489D01*
X779018Y331622D01*
X785672Y343662D01*
X656336Y343662D01*
G37*
G36*
X3458768Y3467100D02*
G01*
X3541014Y3467100D01*
X3541014Y3548887D01*
X3458768Y3548887D01*
X3459022Y3548024D01*
X3463645Y3539540D01*
X3469538Y3531920D01*
X3476650Y3525367D01*
X3484727Y3520135D01*
X3491128Y3517290D01*
X3494328Y3515055D01*
X3496462Y3511804D01*
X3497224Y3507994D01*
X3496462Y3504184D01*
X3494328Y3500932D01*
X3491128Y3498697D01*
X3484727Y3495852D01*
X3476650Y3490620D01*
X3469538Y3484067D01*
X3463645Y3476447D01*
X3459022Y3467963D01*
G37*
G36*
X3688486Y3467100D02*
G01*
X3770782Y3467100D01*
X3770477Y3467963D01*
X3765905Y3476447D01*
X3759962Y3484067D01*
X3752900Y3490620D01*
X3744823Y3495852D01*
X3738372Y3498697D01*
X3735171Y3500932D01*
X3733037Y3504184D01*
X3732326Y3507994D01*
X3733037Y3511804D01*
X3735171Y3515055D01*
X3738372Y3517290D01*
X3744823Y3520135D01*
X3752900Y3525367D01*
X3759962Y3531920D01*
X3765905Y3539540D01*
X3770477Y3548024D01*
X3770782Y3548887D01*
X3688486Y3548887D01*
G37*
G36*
X2358948Y3467100D02*
G01*
X2441244Y3467100D01*
X2440940Y3467963D01*
X2436368Y3476447D01*
X2430424Y3484067D01*
X2423312Y3490620D01*
X2415235Y3495852D01*
X2408834Y3498697D01*
X2405634Y3500932D01*
X2403500Y3504184D01*
X2402738Y3507994D01*
X2403500Y3511804D01*
X2405634Y3515055D01*
X2408834Y3517290D01*
X2415235Y3520135D01*
X2423312Y3525367D01*
X2430424Y3531920D01*
X2436368Y3539540D01*
X2440940Y3548024D01*
X2441244Y3548887D01*
X2358948Y3548887D01*
G37*
G36*
X5217261Y3454095D02*
G01*
X5315356Y3454095D01*
X5315356Y3508654D01*
X5190794Y3508654D01*
X5190794Y3480562D01*
X5191506Y3474262D01*
X5193436Y3468776D01*
X5196484Y3463899D01*
X5200599Y3459784D01*
X5205476Y3456686D01*
X5210962Y3454806D01*
G37*
G36*
X5538063Y3454095D02*
G01*
X5636158Y3454095D01*
X5642457Y3454806D01*
X5647944Y3456686D01*
X5652820Y3459784D01*
X5656935Y3463899D01*
X5659983Y3468776D01*
X5661914Y3474262D01*
X5662625Y3480562D01*
X5662625Y3508654D01*
X5538063Y3508654D01*
G37*
G36*
X213867Y3454095D02*
G01*
X311912Y3454095D01*
X311912Y3508654D01*
X187350Y3508654D01*
X187350Y3480562D01*
X188061Y3474262D01*
X189992Y3468776D01*
X193090Y3463899D01*
X197154Y3459784D01*
X202082Y3456686D01*
X207517Y3454806D01*
G37*
G36*
X534619Y3454095D02*
G01*
X632714Y3454095D01*
X639013Y3454806D01*
X644499Y3456686D01*
X649376Y3459784D01*
X653491Y3463899D01*
X656539Y3468776D01*
X658469Y3474262D01*
X659180Y3480562D01*
X659180Y3508654D01*
X534619Y3508654D01*
G37*
G36*
X2624074Y3403854D02*
G01*
X2793644Y3403854D01*
X2793644Y3820922D01*
X2650540Y3820922D01*
X2644241Y3820210D01*
X2638806Y3818280D01*
X2633878Y3815181D01*
X2629814Y3811117D01*
X2626715Y3806190D01*
X2624785Y3800754D01*
X2624074Y3794404D01*
G37*
G36*
X3106318Y3403854D02*
G01*
X3275888Y3403854D01*
X3275888Y3794404D01*
X3275177Y3800754D01*
X3273298Y3806190D01*
X3270199Y3811117D01*
X3266084Y3815181D01*
X3261207Y3818280D01*
X3255721Y3820210D01*
X3249422Y3820922D01*
X3106318Y3820922D01*
G37*
G36*
X1219098Y2986328D02*
G01*
X1263650Y2986328D01*
X1263650Y3035909D01*
X1245565Y3035909D01*
X1239266Y3035198D01*
X1233779Y3033268D01*
X1228902Y3030220D01*
X1224788Y3026105D01*
X1221689Y3021228D01*
X1219809Y3015742D01*
X1219098Y3009442D01*
G37*
G36*
X1326337Y2986328D02*
G01*
X1370888Y2986328D01*
X1370888Y3009442D01*
X1370177Y3015742D01*
X1368298Y3021228D01*
X1365199Y3026105D01*
X1361135Y3030220D01*
X1356207Y3033268D01*
X1350772Y3035198D01*
X1344422Y3035909D01*
X1326337Y3035909D01*
G37*

%LPD*%
G36*
X4430725Y2390495D02*
G01*
X4426864Y2391257D01*
X4423562Y2393442D01*
X4373880Y2443124D01*
X4371695Y2446426D01*
X4370882Y2450287D01*
X4370882Y2509418D01*
X4370171Y2515768D01*
X4368292Y2521204D01*
X4365193Y2526131D01*
X4361129Y2530195D01*
X4356201Y2533294D01*
X4350766Y2535174D01*
X4344416Y2535885D01*
X4285284Y2535885D01*
X4281424Y2536698D01*
X4278122Y2538882D01*
X4103878Y2713126D01*
X4101693Y2716428D01*
X4100880Y2720289D01*
X4100880Y2799791D01*
X4100677Y2804414D01*
X4100118Y2808833D01*
X4099153Y2813151D01*
X4097832Y2817418D01*
X4096105Y2821482D01*
X4094073Y2825445D01*
X4091686Y2829204D01*
X4088993Y2832709D01*
X4085844Y2836164D01*
X3822649Y3099358D01*
X3819194Y3102508D01*
X3815689Y3105200D01*
X3811930Y3107588D01*
X3808018Y3109620D01*
X3803904Y3111347D01*
X3799687Y3112668D01*
X3795318Y3113633D01*
X3790950Y3114192D01*
X3786276Y3114395D01*
X3748024Y3114395D01*
X3743909Y3115259D01*
X3738372Y3117697D01*
X3735171Y3119932D01*
X3733037Y3123184D01*
X3732326Y3126994D01*
X3733037Y3130804D01*
X3735171Y3134055D01*
X3738372Y3136290D01*
X3743909Y3138728D01*
X3748024Y3139592D01*
X4041394Y3139592D01*
X4045305Y3138830D01*
X4048556Y3136595D01*
X4216044Y2969158D01*
X4218228Y2965856D01*
X4218990Y2961995D01*
X4218990Y2902813D01*
X4219702Y2896514D01*
X4221632Y2891078D01*
X4224731Y2886151D01*
X4228795Y2882087D01*
X4233722Y2878988D01*
X4237228Y2877769D01*
X4240784Y2875584D01*
X4243222Y2872232D01*
X4244035Y2868168D01*
X4244086Y2798114D01*
X4243222Y2794050D01*
X4240834Y2790647D01*
X4237278Y2788513D01*
X4233773Y2787294D01*
X4228896Y2784195D01*
X4224782Y2780131D01*
X4221683Y2775204D01*
X4219803Y2769768D01*
X4219092Y2763418D01*
X4219092Y2644546D01*
X4219803Y2638247D01*
X4221683Y2632760D01*
X4224782Y2627884D01*
X4228896Y2623769D01*
X4233773Y2620721D01*
X4239260Y2618790D01*
X4245559Y2618079D01*
X4344416Y2618079D01*
X4350766Y2618790D01*
X4356201Y2620721D01*
X4361129Y2623769D01*
X4365193Y2627884D01*
X4368292Y2632760D01*
X4370171Y2638247D01*
X4370882Y2644546D01*
X4370882Y2755696D01*
X4371644Y2759456D01*
X4373727Y2762707D01*
X4376877Y2764942D01*
X4380585Y2765856D01*
X4384395Y2765298D01*
X4390390Y2763215D01*
X4394555Y2762250D01*
X4398975Y2761691D01*
X4403598Y2761488D01*
X4518914Y2761488D01*
X4522825Y2760726D01*
X4526127Y2758490D01*
X4528312Y2755239D01*
X4529074Y2751328D01*
X4529074Y2740355D01*
X4573625Y2740355D01*
X4573625Y2751328D01*
X4574438Y2755239D01*
X4576622Y2758490D01*
X4579924Y2760726D01*
X4583785Y2761488D01*
X4626203Y2761488D01*
X4630064Y2760726D01*
X4633366Y2758490D01*
X4635550Y2755239D01*
X4636363Y2751328D01*
X4636363Y2740355D01*
X4680915Y2740355D01*
X4680915Y2751328D01*
X4681677Y2755239D01*
X4683861Y2758490D01*
X4687163Y2760726D01*
X4691075Y2761488D01*
X4812487Y2761488D01*
X4816398Y2760726D01*
X4819700Y2758490D01*
X5001564Y2576626D01*
X5005019Y2573477D01*
X5008524Y2570784D01*
X5012283Y2568397D01*
X5016195Y2566314D01*
X5020310Y2564638D01*
X5024577Y2563317D01*
X5028895Y2562352D01*
X5033314Y2561742D01*
X5037937Y2561539D01*
X5416905Y2561539D01*
X5420664Y2560828D01*
X5423916Y2558745D01*
X5426151Y2555595D01*
X5427014Y2551836D01*
X5426456Y2548026D01*
X5425490Y2545181D01*
X5423306Y2541625D01*
X5419953Y2539238D01*
X5415889Y2538374D01*
X5037632Y2538374D01*
X5032959Y2538171D01*
X5028590Y2537612D01*
X5024221Y2536647D01*
X5020005Y2535326D01*
X5015890Y2533599D01*
X5011978Y2531567D01*
X5008219Y2529179D01*
X5004714Y2526487D01*
X5001260Y2523337D01*
X4871415Y2393442D01*
X4868113Y2391257D01*
X4864201Y2390495D01*
X4691075Y2390495D01*
X4687163Y2391257D01*
X4683861Y2393442D01*
X4681677Y2396744D01*
X4680915Y2400655D01*
X4680915Y2413660D01*
X4636363Y2413660D01*
X4636363Y2400655D01*
X4635550Y2396744D01*
X4633366Y2393442D01*
X4630064Y2391257D01*
X4626203Y2390495D01*
X4583785Y2390495D01*
X4579924Y2391257D01*
X4576622Y2393442D01*
X4574438Y2396744D01*
X4573625Y2400655D01*
X4573625Y2413660D01*
X4529074Y2413660D01*
X4529074Y2400655D01*
X4528312Y2396744D01*
X4526127Y2393442D01*
X4522825Y2391257D01*
X4518914Y2390495D01*
G37*

%LPC*%
G36*
X4636363Y2618079D02*
G01*
X4654397Y2618079D01*
X4660747Y2618790D01*
X4666183Y2620721D01*
X4671110Y2623769D01*
X4675174Y2627884D01*
X4678273Y2632760D01*
X4680204Y2638247D01*
X4680915Y2644546D01*
X4680915Y2667660D01*
X4636363Y2667660D01*
G37*
G36*
X4555540Y2618079D02*
G01*
X4573625Y2618079D01*
X4573625Y2667660D01*
X4529074Y2667660D01*
X4529074Y2644546D01*
X4529785Y2638247D01*
X4531715Y2632760D01*
X4534763Y2627884D01*
X4538878Y2623769D01*
X4543755Y2620721D01*
X4549241Y2618790D01*
G37*
G36*
X4529074Y2486355D02*
G01*
X4573625Y2486355D01*
X4573625Y2535885D01*
X4555540Y2535885D01*
X4549241Y2535174D01*
X4543755Y2533294D01*
X4538878Y2530195D01*
X4534763Y2526131D01*
X4531715Y2521204D01*
X4529785Y2515768D01*
X4529074Y2509418D01*
G37*
G36*
X4636363Y2486355D02*
G01*
X4680915Y2486355D01*
X4680915Y2509418D01*
X4680204Y2515768D01*
X4678273Y2521204D01*
X4675174Y2526131D01*
X4671110Y2530195D01*
X4666183Y2533294D01*
X4660747Y2535174D01*
X4654397Y2535885D01*
X4636363Y2535885D01*
G37*

%LPD*%
G36*
X1097991Y2378202D02*
G01*
X1094079Y2378964D01*
X1090777Y2381199D01*
X948690Y2523337D01*
X945235Y2526487D01*
X941730Y2529179D01*
X937971Y2531567D01*
X934008Y2533599D01*
X929944Y2535326D01*
X925677Y2536647D01*
X921359Y2537612D01*
X916940Y2538171D01*
X912317Y2538374D01*
X583082Y2538374D01*
X579323Y2539085D01*
X576072Y2541219D01*
X573836Y2544318D01*
X572922Y2548077D01*
X573481Y2551887D01*
X574497Y2554782D01*
X576630Y2558338D01*
X580034Y2560726D01*
X584098Y2561590D01*
X869187Y2561590D01*
X873810Y2561793D01*
X878230Y2562352D01*
X882548Y2563317D01*
X886815Y2564638D01*
X890879Y2566365D01*
X894842Y2568397D01*
X898601Y2570784D01*
X902106Y2573477D01*
X905560Y2576626D01*
X1097635Y2768701D01*
X1100886Y2770936D01*
X1104798Y2771698D01*
X1106678Y2771698D01*
X1110843Y2770784D01*
X1114298Y2768244D01*
X1116380Y2764536D01*
X1116787Y2760319D01*
X1115364Y2756255D01*
X1112469Y2753156D01*
X1108354Y2750312D01*
X1100683Y2742996D01*
X1094333Y2734513D01*
X1089406Y2725115D01*
X1086053Y2715056D01*
X1084326Y2704592D01*
X1084326Y2693974D01*
X1086053Y2683510D01*
X1089406Y2673451D01*
X1094333Y2664104D01*
X1100683Y2655620D01*
X1108354Y2648254D01*
X1117041Y2642260D01*
X1126642Y2637688D01*
X1136802Y2634742D01*
X1147368Y2633472D01*
X1157935Y2633878D01*
X1168349Y2636012D01*
X1178255Y2639771D01*
X1191666Y2647797D01*
X1195070Y2648407D01*
X1202537Y2648407D01*
X1206195Y2647696D01*
X1209294Y2645816D01*
X1211580Y2642870D01*
X1212646Y2639364D01*
X1213307Y2633522D01*
X1215186Y2628087D01*
X1218285Y2623159D01*
X1222400Y2619095D01*
X1227277Y2615996D01*
X1232763Y2614117D01*
X1239062Y2613406D01*
X1337919Y2613406D01*
X1344269Y2614117D01*
X1349705Y2615996D01*
X1354632Y2619095D01*
X1358696Y2623159D01*
X1361795Y2628087D01*
X1363675Y2633522D01*
X1364386Y2639872D01*
X1364386Y2758744D01*
X1364234Y2760370D01*
X1364640Y2764637D01*
X1366723Y2768295D01*
X1370177Y2770784D01*
X1374292Y2771698D01*
X1477365Y2771698D01*
X1482039Y2771902D01*
X1486458Y2772460D01*
X1490776Y2773426D01*
X1494993Y2774746D01*
X1499108Y2776474D01*
X1503070Y2778506D01*
X1506778Y2780893D01*
X1510080Y2783484D01*
X1513992Y2785313D01*
X1518361Y2785414D01*
X1522323Y2783636D01*
X1525168Y2780385D01*
X1526438Y2776220D01*
X1525828Y2771952D01*
X1523288Y2764942D01*
X1522577Y2758744D01*
X1522577Y2639872D01*
X1523288Y2633522D01*
X1525219Y2628087D01*
X1528267Y2623159D01*
X1532382Y2619095D01*
X1537258Y2615996D01*
X1542745Y2614117D01*
X1549044Y2613406D01*
X1647901Y2613406D01*
X1654251Y2614117D01*
X1659686Y2615996D01*
X1664614Y2619095D01*
X1668678Y2623159D01*
X1671777Y2628087D01*
X1673707Y2633522D01*
X1674418Y2639872D01*
X1674418Y2758744D01*
X1673707Y2765044D01*
X1671777Y2770479D01*
X1668678Y2775407D01*
X1664614Y2779471D01*
X1659686Y2782570D01*
X1656181Y2783789D01*
X1652625Y2785922D01*
X1650238Y2789326D01*
X1649374Y2793390D01*
X1649374Y2854452D01*
X1650085Y2858058D01*
X1651965Y2861208D01*
X1654911Y2863443D01*
X1658416Y2864561D01*
X1660753Y2864815D01*
X1666189Y2866694D01*
X1671116Y2869793D01*
X1675180Y2873857D01*
X1678279Y2878785D01*
X1680210Y2884220D01*
X1680921Y2890570D01*
X1680921Y2949702D01*
X1681683Y2953613D01*
X1683867Y2956864D01*
X1863598Y3136595D01*
X1866900Y3138830D01*
X1870811Y3139592D01*
X2151989Y3139592D01*
X2156053Y3138728D01*
X2161590Y3136290D01*
X2164791Y3134055D01*
X2166924Y3130804D01*
X2167686Y3126994D01*
X2166924Y3123184D01*
X2164791Y3119932D01*
X2161590Y3117697D01*
X2156053Y3115259D01*
X2151989Y3114395D01*
X2113737Y3114395D01*
X2109063Y3114192D01*
X2104644Y3113633D01*
X2100326Y3112668D01*
X2096109Y3111347D01*
X2091994Y3109620D01*
X2088032Y3107588D01*
X2084324Y3105200D01*
X2080768Y3102508D01*
X2077364Y3099358D01*
X1864156Y2886151D01*
X1861007Y2882696D01*
X1858314Y2879191D01*
X1855927Y2875432D01*
X1853844Y2871520D01*
X1852168Y2867406D01*
X1850847Y2863189D01*
X1849882Y2858820D01*
X1849272Y2854452D01*
X1849069Y2849778D01*
X1849069Y2770276D01*
X1848307Y2766415D01*
X1846122Y2763113D01*
X1621891Y2538882D01*
X1618589Y2536698D01*
X1614678Y2535885D01*
X1555546Y2535885D01*
X1549247Y2535174D01*
X1543761Y2533294D01*
X1538884Y2530195D01*
X1534769Y2526131D01*
X1531721Y2521204D01*
X1529791Y2515768D01*
X1529080Y2509418D01*
X1529080Y2450287D01*
X1528318Y2446426D01*
X1526133Y2443124D01*
X1464208Y2381199D01*
X1460906Y2378964D01*
X1456994Y2378202D01*
X1380896Y2378202D01*
X1376730Y2379116D01*
X1373327Y2381605D01*
X1371193Y2385263D01*
X1370888Y2390546D01*
X1370888Y2413660D01*
X1326337Y2413660D01*
X1326337Y2388362D01*
X1325575Y2384501D01*
X1323390Y2381199D01*
X1320088Y2378964D01*
X1316177Y2378202D01*
X1273810Y2378202D01*
X1269898Y2378964D01*
X1266647Y2381199D01*
X1264412Y2384501D01*
X1263650Y2388362D01*
X1263650Y2413660D01*
X1219098Y2413660D01*
X1219098Y2390546D01*
X1218793Y2385263D01*
X1216710Y2381605D01*
X1213256Y2379116D01*
X1209090Y2378202D01*
G37*

%LPC*%
G36*
X1326337Y2486355D02*
G01*
X1370888Y2486355D01*
X1370888Y2509418D01*
X1370177Y2515768D01*
X1368298Y2521204D01*
X1365199Y2526131D01*
X1361135Y2530195D01*
X1356207Y2533294D01*
X1350772Y2535174D01*
X1344422Y2535885D01*
X1326337Y2535885D01*
G37*
G36*
X1219098Y2486355D02*
G01*
X1263650Y2486355D01*
X1263650Y2535885D01*
X1245565Y2535885D01*
X1239266Y2535174D01*
X1233779Y2533294D01*
X1228902Y2530195D01*
X1224788Y2526131D01*
X1221689Y2521204D01*
X1219809Y2515768D01*
X1219098Y2509418D01*
G37*

%LPD*%
D10*
X2745993Y1850009D02*
G01*
X2549997Y2046005D01*
X2549997Y2599997D01*
X2467495Y2682496D01*
X2285230Y2682496D01*
X2491993Y1850009D02*
G01*
X2491993Y2497201D01*
X2433698Y2555496D01*
X2285230Y2555496D01*
X2237993Y1850009D02*
G01*
X2050034Y2037969D01*
X2050034Y2700020D01*
X2159508Y2809496D01*
X2285243Y2809496D01*
X3507993Y1850009D02*
G01*
X3399990Y1958012D01*
X3399990Y2599997D01*
X3482492Y2682496D01*
X3614762Y2682496D01*
D11*
X4877234Y2327300D02*
G01*
X5037406Y2487472D01*
X5500014Y2487472D01*
X4850074Y2800121D02*
G01*
X5037726Y2612466D01*
X5500014Y2612466D01*
X4294931Y2865897D02*
G01*
X4295013Y2865815D01*
X4295013Y2704007D01*
X4294941Y2212268D02*
G01*
X4294941Y2449929D01*
X4295005Y2449997D01*
X4254423Y3002770D02*
G01*
X4294929Y2962264D01*
X4294929Y2962264D02*
G01*
X4294929Y2920870D01*
X4403399Y2812394D01*
X4295005Y2449997D02*
G01*
X4405434Y2339573D01*
X4877158Y2339573D01*
X4403399Y2812394D02*
G01*
X4849997Y2812394D01*
X4294929Y2962264D02*
G01*
X4295005Y2703997D01*
X1604987Y2949991D02*
G01*
X1477596Y2822600D01*
X1079500Y2822600D01*
X869391Y2612491D01*
X500024Y2612491D01*
X1604987Y2449990D02*
G01*
X1482298Y2327300D01*
X1072690Y2327300D01*
X912517Y2487472D01*
X500024Y2487472D01*
X1604987Y2449990D02*
G01*
X1604987Y2199995D01*
X1604987Y2949991D02*
G01*
X1598488Y2943486D01*
X1598488Y2699296D01*
X3614762Y3190494D02*
G01*
X4066692Y3190494D01*
X4294924Y2962262D01*
X3614762Y3063494D02*
G01*
X3786492Y3063494D01*
X4049991Y2799994D01*
X4049991Y2695008D01*
X4295000Y2450000D01*
X2285225Y3190494D02*
G01*
X1845492Y3190494D01*
X1604987Y2949989D01*
X2285225Y3063494D02*
G01*
X2113495Y3063494D01*
X1899996Y2849994D01*
X1899996Y2744998D01*
X1604987Y2449990D01*
D10*
X2999993Y1850009D02*
G01*
X3327400Y2177414D01*
X3327400Y2677398D01*
X3459497Y2809496D01*
X3614762Y2809496D01*
D11*
X4773264Y3549977D02*
G01*
X5073253Y3249990D01*
X5449986Y3249990D01*
X5699993Y2999996D01*
X5699993Y1649994D01*
X4777993Y727997D01*
X4777993Y326009D01*
D10*
X1295006Y2449990D02*
G01*
X1149997Y2449990D01*
X1295006Y2949989D02*
G01*
X1149997Y2949989D01*
X4604981Y2704000D02*
G01*
X4749990Y2704000D01*
X4604981Y2450000D02*
G01*
X4749990Y2450000D01*
X3614762Y2936496D02*
G01*
X3713497Y2936496D01*
X3949997Y2700002D01*
X3949997Y2038012D01*
X3761993Y1850009D01*
D11*
X3614762Y2555494D02*
G01*
X3805491Y2555494D01*
X3849992Y2599994D01*
X1288503Y2699296D02*
G01*
X1149997Y2699296D01*
X1295006Y2199998D02*
G01*
X1149997Y2199998D01*
X4604905Y2212263D02*
G01*
X4617173Y2199995D01*
X4749990Y2199995D01*
X4604905Y2962262D02*
G01*
X4617173Y2949994D01*
X4749990Y2949994D01*
X2899991Y4399991D02*
G01*
X2899991Y4549990D01*
X2999991Y4649993D01*
X3499990Y4649993D01*
X3624986Y4524997D01*
X3624986Y4399991D01*
X2700654Y4399991D02*
G01*
X2700654Y4250651D01*
X2499995Y4049991D01*
X1663395Y4049991D01*
X1420990Y3807587D01*
X2700781Y4400042D02*
G01*
X2700781Y4250689D01*
X2549906Y4100068D01*
X2549906Y3050031D01*
X2436368Y2936494D01*
X2285238Y2936494D01*
X2700781Y4400042D02*
G01*
X2700781Y4249420D01*
X3050031Y3899915D01*
X4423156Y3899915D01*
X4773168Y3549904D01*
X1076718Y3549992D02*
G01*
X1621409Y3549992D01*
X1879003Y3807587D01*
X1879003Y3807587D02*
G01*
X1986597Y3699992D01*
X2199995Y3699992D01*
D12*
G01*
X1420977Y3807587D03*
G01*
X1879015Y3807587D03*
D13*
G01*
X1650009Y4492396D03*
D14*
G01*
X1076705Y3549980D03*
G01*
X423290Y3549980D03*
G01*
X4773269Y3549980D03*
G01*
X5426709Y3549980D03*
D15*
G01*
X2285238Y3571494D03*
G01*
X2285238Y3444494D03*
G01*
X2285238Y3317494D03*
G01*
X2285238Y3190494D03*
G01*
X2285238Y3063494D03*
G01*
X2285238Y2936494D03*
G01*
X2285238Y2809494D03*
G01*
X2285238Y2682494D03*
G01*
X2285238Y2555494D03*
G01*
X2285238Y2428494D03*
G01*
X3614775Y3571494D03*
G01*
X3614775Y3444494D03*
G01*
X3614775Y3317494D03*
G01*
X3614775Y3190494D03*
G01*
X3614775Y3063494D03*
G01*
X3614775Y2936494D03*
G01*
X3614775Y2809494D03*
G01*
X3614775Y2682494D03*
G01*
X3614775Y2555494D03*
G01*
X3614775Y2428494D03*
D16*
G01*
X2949994Y2999994D03*
D17*
G01*
X1598498Y2699283D03*
G01*
X1288516Y2699283D03*
G01*
X1605000Y2199995D03*
G01*
X1295019Y2199995D03*
G01*
X4294936Y2212263D03*
G01*
X4604918Y2212263D03*
G01*
X4294936Y2962275D03*
G01*
X4604918Y2962275D03*
G01*
X4604994Y2703982D03*
G01*
X4295013Y2703982D03*
G01*
X4604994Y2449982D03*
G01*
X4295013Y2449982D03*
G01*
X1295019Y2449982D03*
G01*
X1605000Y2449982D03*
G01*
X1295019Y2949981D03*
G01*
X1605000Y2949981D03*
D18*
G01*
X2899994Y4399991D03*
G01*
X2499995Y4399991D03*
G01*
X2700654Y4399991D03*
D19*
G01*
X2289987Y4399991D03*
G01*
X3110001Y4399991D03*
D20*
G01*
X3974998Y4399991D03*
G01*
X3624986Y4399991D03*
D21*
G01*
X500024Y2487472D03*
D22*
G01*
X499998Y2612491D03*
D21*
G01*
X5500014Y2612466D03*
D22*
G01*
X5499988Y2487498D03*
D23*
G01*
X1221994Y1850009D03*
G01*
X1475994Y1850009D03*
G01*
X1729994Y1850009D03*
G01*
X1983993Y1850009D03*
G01*
X2237993Y1850009D03*
G01*
X2491993Y1850009D03*
G01*
X2745993Y1850009D03*
G01*
X2999993Y1850009D03*
G01*
X3253993Y1850009D03*
G01*
X3507993Y1850009D03*
G01*
X3761993Y1850009D03*
G01*
X4015993Y1850009D03*
G01*
X4269993Y1850009D03*
G01*
X4523993Y1850009D03*
D24*
G01*
X4777993Y1849983D03*
D23*
G01*
X1221994Y326009D03*
G01*
X1475994Y326009D03*
G01*
X1729994Y326009D03*
G01*
X1983993Y326009D03*
G01*
X2237993Y326009D03*
G01*
X2491993Y326009D03*
G01*
X2745993Y326009D03*
G01*
X2999993Y326009D03*
G01*
X3253993Y326009D03*
G01*
X3507993Y326009D03*
G01*
X3761993Y326009D03*
G01*
X4015993Y326009D03*
G01*
X4269993Y326009D03*
G01*
X4523993Y326009D03*
D24*
G01*
X4777993Y326009D03*
D25*
G01*
X499998Y4499990D03*
G01*
X5499988Y4499990D03*
G01*
X5499988Y499998D03*
G01*
X499998Y499998D03*
D26*
G01*
X2799994Y2549982D03*
G01*
X2803016Y2649981D03*
G01*
X2799994Y2749981D03*
G01*
X2799994Y2848457D03*
G01*
X2799994Y2949981D03*
G01*
X2799994Y3049981D03*
G01*
X2799994Y3149980D03*
G01*
X2799994Y3249980D03*
G01*
X2799994Y3349980D03*
G01*
X2799994Y3449980D03*
G01*
X2899968Y2549982D03*
G01*
X2903016Y2649981D03*
G01*
X2899968Y2749981D03*
G01*
X2899968Y2848457D03*
G01*
X2899968Y2949981D03*
G01*
X2899968Y3049981D03*
G01*
X2899968Y3149980D03*
G01*
X2899968Y3249980D03*
G01*
X2899968Y3349980D03*
G01*
X2899968Y3449980D03*
G01*
X2999968Y2549982D03*
G01*
X3003016Y2649981D03*
G01*
X2999968Y2749981D03*
G01*
X2999968Y2848457D03*
G01*
X2999968Y2949981D03*
G01*
X2999968Y3049981D03*
G01*
X2999968Y3149980D03*
G01*
X2999968Y3249980D03*
G01*
X2999968Y3349980D03*
G01*
X2999968Y3449980D03*
G01*
X3099993Y2549982D03*
G01*
X3102990Y2649981D03*
G01*
X3099993Y2749981D03*
G01*
X3099993Y2848457D03*
G01*
X3099993Y2949981D03*
G01*
X3099993Y3049981D03*
G01*
X3099993Y3149980D03*
G01*
X3099993Y3249980D03*
G01*
X3099993Y3349980D03*
G01*
X3099993Y3449980D03*
D27*
G01*
X1150010Y2449982D03*
G01*
X1150010Y2949981D03*
G01*
X4750003Y2704007D03*
G01*
X4750003Y2450007D03*
D28*
G01*
X3849979Y2599994D03*
G01*
X2199995Y3699992D03*
G01*
X1150010Y2699283D03*
G01*
X1150010Y2199995D03*
G01*
X4750003Y2199995D03*
G01*
X4750003Y2949981D03*
M02*
