G04 Layer: BottomSolderMaskLayer*
G04 EasyEDA v6.5.23, 2023-05-07 17:20:53*
G04 06317d6caa1047b3ac86ced241ba49f9,e617cb807303496c873bc539bd577a54,10*
G04 Gerber Generator version 0.2*
G04 Scale: 100 percent, Rotated: No, Reflected: No *
G04 Dimensions in millimeters *
G04 leading zeros omitted , absolute positions ,4 integer and 5 decimal *
%FSLAX45Y45*%
%MOMM*%

%AMMACRO1*1,1,$1,$2,$3*1,1,$1,$4,$5*1,1,$1,0-$2,0-$3*1,1,$1,0-$4,0-$5*20,1,$1,$2,$3,$4,$5,0*20,1,$1,$4,$5,0-$2,0-$3,0*20,1,$1,0-$2,0-$3,0-$4,0-$5,0*20,1,$1,0-$4,0-$5,$2,$3,0*4,1,4,$2,$3,$4,$5,0-$2,0-$3,0-$4,0-$5,$2,$3,0*%
%ADD10O,1.7015460000000002X1.4015720000000003*%
%ADD11O,2.101596X3.1015939999999995*%
%ADD12C,2.3016*%
%ADD13C,1.1016*%
%ADD14MACRO1,0.1016X0.5X0.5X0.5X-0.5*%
%ADD15MACRO1,0.1016X-0.5X-0.5X-0.5X0.5*%
%ADD16C,1.6764*%
%ADD17MACRO1,0.1016X0.7874X-0.7874X-0.7874X-0.7874*%
%ADD18C,6.1016*%

%LPD*%
D10*
G01*
X2899994Y4399991D03*
G01*
X2499995Y4399991D03*
G01*
X2700654Y4399991D03*
D11*
G01*
X2289987Y4399991D03*
G01*
X3110001Y4399991D03*
D12*
G01*
X3974998Y4399991D03*
G01*
X3624986Y4399991D03*
D13*
G01*
X500024Y2487472D03*
D14*
G01*
X499998Y2612494D03*
D13*
G01*
X5500014Y2612466D03*
D15*
G01*
X5499988Y2487495D03*
D16*
G01*
X1221994Y1850009D03*
G01*
X1475994Y1850009D03*
G01*
X1729994Y1850009D03*
G01*
X1983993Y1850009D03*
G01*
X2237993Y1850009D03*
G01*
X2491993Y1850009D03*
G01*
X2745993Y1850009D03*
G01*
X2999993Y1850009D03*
G01*
X3253993Y1850009D03*
G01*
X3507993Y1850009D03*
G01*
X3761993Y1850009D03*
G01*
X4015993Y1850009D03*
G01*
X4269993Y1850009D03*
G01*
X4523993Y1850009D03*
D17*
G01*
X4777994Y1849996D03*
D16*
G01*
X1221994Y326009D03*
G01*
X1475994Y326009D03*
G01*
X1729994Y326009D03*
G01*
X1983993Y326009D03*
G01*
X2237993Y326009D03*
G01*
X2491993Y326009D03*
G01*
X2745993Y326009D03*
G01*
X2999993Y326009D03*
G01*
X3253993Y326009D03*
G01*
X3507993Y326009D03*
G01*
X3761993Y326009D03*
G01*
X4015993Y326009D03*
G01*
X4269993Y326009D03*
G01*
X4523993Y326009D03*
D17*
G01*
X4777994Y325998D03*
D18*
G01*
X499998Y4499990D03*
G01*
X5499988Y4499990D03*
G01*
X5499988Y499998D03*
G01*
X499998Y499998D03*
M02*
