G04 Layer: TopPasteMaskLayer*
G04 EasyEDA v6.5.23, 2023-05-07 17:20:53*
G04 06317d6caa1047b3ac86ced241ba49f9,e617cb807303496c873bc539bd577a54,10*
G04 Gerber Generator version 0.2*
G04 Scale: 100 percent, Rotated: No, Reflected: No *
G04 Dimensions in millimeters *
G04 leading zeros omitted , absolute positions ,4 integer and 5 decimal *
%FSLAX45Y45*%
%MOMM*%

%AMMACRO1*21,1,$1,$2,0,0,$3*%
%ADD10R,1.6000X3.0000*%
%ADD11R,5.8000X6.2000*%
%ADD12R,4.2000X1.4000*%
%ADD13O,2.6954987999999998X0.6510020000000001*%
%ADD14MACRO1,6X15.9X0.0000*%
%ADD15R,1.0000X1.2000*%

%LPD*%
D10*
G01*
X1420977Y3807587D03*
G01*
X1879015Y3807587D03*
D11*
G01*
X1650009Y4492396D03*
D12*
G01*
X1076705Y3549980D03*
G01*
X423290Y3549980D03*
G01*
X4773269Y3549980D03*
G01*
X5426709Y3549980D03*
D13*
G01*
X2285238Y3571494D03*
G01*
X2285238Y3444494D03*
G01*
X2285238Y3317494D03*
G01*
X2285238Y3190494D03*
G01*
X2285238Y3063494D03*
G01*
X2285238Y2936494D03*
G01*
X2285238Y2809494D03*
G01*
X2285238Y2682494D03*
G01*
X2285238Y2555494D03*
G01*
X2285238Y2428494D03*
G01*
X3614775Y3571494D03*
G01*
X3614775Y3444494D03*
G01*
X3614775Y3317494D03*
G01*
X3614775Y3190494D03*
G01*
X3614775Y3063494D03*
G01*
X3614775Y2936494D03*
G01*
X3614775Y2809494D03*
G01*
X3614775Y2682494D03*
G01*
X3614775Y2555494D03*
G01*
X3614775Y2428494D03*
D14*
G01*
X2949994Y2999994D03*
D15*
G01*
X1598498Y2699283D03*
G01*
X1288516Y2699283D03*
G01*
X1605000Y2199995D03*
G01*
X1295019Y2199995D03*
G01*
X4294936Y2212263D03*
G01*
X4604918Y2212263D03*
G01*
X4294936Y2962275D03*
G01*
X4604918Y2962275D03*
G01*
X4604994Y2703982D03*
G01*
X4295013Y2703982D03*
G01*
X4604994Y2449982D03*
G01*
X4295013Y2449982D03*
G01*
X1295019Y2449982D03*
G01*
X1605000Y2449982D03*
G01*
X1295019Y2949981D03*
G01*
X1605000Y2949981D03*
M02*
