G04 Layer: TopSilkscreenLayer*
G04 EasyEDA v6.5.23, 2023-05-07 17:20:53*
G04 06317d6caa1047b3ac86ced241ba49f9,e617cb807303496c873bc539bd577a54,10*
G04 Gerber Generator version 0.2*
G04 Scale: 100 percent, Rotated: No, Reflected: No *
G04 Dimensions in millimeters *
G04 leading zeros omitted , absolute positions ,4 integer and 5 decimal *
%FSLAX45Y45*%
%MOMM*%

%ADD10C,0.2032*%
%ADD11C,0.1524*%
%ADD12C,0.2540*%
%ADD13C,0.2030*%
%ADD14C,0.3000*%
%ADD15C,0.0163*%

%LPD*%
D10*
X3111258Y4380776D02*
G01*
X3111258Y4258094D01*
X3050044Y4319562D02*
G01*
X3172726Y4319562D01*
X4097629Y4832642D02*
G01*
X4104487Y4819180D01*
X4118203Y4805464D01*
X4131919Y4798606D01*
X4159097Y4798606D01*
X4172813Y4805464D01*
X4186275Y4819180D01*
X4193133Y4832642D01*
X4199991Y4853216D01*
X4199991Y4887252D01*
X4193133Y4907826D01*
X4186275Y4921288D01*
X4172813Y4935004D01*
X4159097Y4941862D01*
X4131919Y4941862D01*
X4118203Y4935004D01*
X4104487Y4921288D01*
X4097629Y4907826D01*
X4097629Y4887252D01*
X4131919Y4887252D02*
G01*
X4097629Y4887252D01*
X4052671Y4798606D02*
G01*
X4052671Y4941862D01*
X4052671Y4798606D02*
G01*
X3957167Y4941862D01*
X3957167Y4798606D02*
G01*
X3957167Y4941862D01*
X3912209Y4798606D02*
G01*
X3912209Y4941862D01*
X3912209Y4798606D02*
G01*
X3864457Y4798606D01*
X3844137Y4805464D01*
X3830421Y4819180D01*
X3823563Y4832642D01*
X3816705Y4853216D01*
X3816705Y4887252D01*
X3823563Y4907826D01*
X3830421Y4921288D01*
X3844137Y4935004D01*
X3864457Y4941862D01*
X3912209Y4941862D01*
X1957405Y1236080D02*
G01*
X1902795Y1092824D01*
X1957405Y1236080D02*
G01*
X2011761Y1092824D01*
X1923369Y1140576D02*
G01*
X1991441Y1140576D01*
X2056973Y1236080D02*
G01*
X2056973Y1092824D01*
X2056973Y1236080D02*
G01*
X2118187Y1236080D01*
X2138761Y1229222D01*
X2145619Y1222364D01*
X2152223Y1208902D01*
X2152223Y1195186D01*
X2145619Y1181470D01*
X2138761Y1174612D01*
X2118187Y1167754D01*
X2056973Y1167754D01*
X2104725Y1167754D02*
G01*
X2152223Y1092824D01*
X2197435Y1236080D02*
G01*
X2197435Y1092824D01*
X2197435Y1236080D02*
G01*
X2245187Y1236080D01*
X2265507Y1229222D01*
X2279223Y1215506D01*
X2286081Y1202044D01*
X2292685Y1181470D01*
X2292685Y1147434D01*
X2286081Y1126860D01*
X2279223Y1113398D01*
X2265507Y1099682D01*
X2245187Y1092824D01*
X2197435Y1092824D01*
X2337897Y1236080D02*
G01*
X2337897Y1133718D01*
X2344501Y1113398D01*
X2358217Y1099682D01*
X2378791Y1092824D01*
X2392253Y1092824D01*
X2412827Y1099682D01*
X2426543Y1113398D01*
X2433147Y1133718D01*
X2433147Y1236080D01*
X2478359Y1236080D02*
G01*
X2478359Y1092824D01*
X2523317Y1236080D02*
G01*
X2523317Y1092824D01*
X2523317Y1236080D02*
G01*
X2618821Y1092824D01*
X2618821Y1236080D02*
G01*
X2618821Y1092824D01*
X2704673Y1236080D02*
G01*
X2690957Y1229222D01*
X2677241Y1215506D01*
X2670637Y1202044D01*
X2663779Y1181470D01*
X2663779Y1147434D01*
X2670637Y1126860D01*
X2677241Y1113398D01*
X2690957Y1099682D01*
X2704673Y1092824D01*
X2731851Y1092824D01*
X2745567Y1099682D01*
X2759029Y1113398D01*
X2765887Y1126860D01*
X2772745Y1147434D01*
X2772745Y1181470D01*
X2765887Y1202044D01*
X2759029Y1215506D01*
X2745567Y1229222D01*
X2731851Y1236080D01*
X2704673Y1236080D01*
X2922859Y1236080D02*
G01*
X2922859Y1092824D01*
X2922859Y1236080D02*
G01*
X3018363Y1092824D01*
X3018363Y1236080D02*
G01*
X3018363Y1092824D01*
X3117677Y1236080D02*
G01*
X3063321Y1092824D01*
X3117677Y1236080D02*
G01*
X3172287Y1092824D01*
X3083641Y1140576D02*
G01*
X3151967Y1140576D01*
X3217245Y1236080D02*
G01*
X3217245Y1092824D01*
X3217245Y1236080D02*
G01*
X3312749Y1092824D01*
X3312749Y1236080D02*
G01*
X3312749Y1092824D01*
X3398601Y1236080D02*
G01*
X3385139Y1229222D01*
X3371423Y1215506D01*
X3364565Y1202044D01*
X3357707Y1181470D01*
X3357707Y1147434D01*
X3364565Y1126860D01*
X3371423Y1113398D01*
X3385139Y1099682D01*
X3398601Y1092824D01*
X3426033Y1092824D01*
X3439495Y1099682D01*
X3453211Y1113398D01*
X3460069Y1126860D01*
X3466927Y1147434D01*
X3466927Y1181470D01*
X3460069Y1202044D01*
X3453211Y1215506D01*
X3439495Y1229222D01*
X3426033Y1236080D01*
X3398601Y1236080D01*
X3630503Y1236080D02*
G01*
X3705433Y1236080D01*
X3664539Y1181470D01*
X3685113Y1181470D01*
X3698575Y1174612D01*
X3705433Y1167754D01*
X3712291Y1147434D01*
X3712291Y1133718D01*
X3705433Y1113398D01*
X3691971Y1099682D01*
X3671397Y1092824D01*
X3651077Y1092824D01*
X3630503Y1099682D01*
X3623645Y1106540D01*
X3616787Y1120256D01*
X3770965Y1236080D02*
G01*
X3845895Y1236080D01*
X3805001Y1181470D01*
X3825575Y1181470D01*
X3839037Y1174612D01*
X3845895Y1167754D01*
X3852753Y1147434D01*
X3852753Y1133718D01*
X3845895Y1113398D01*
X3832433Y1099682D01*
X3811859Y1092824D01*
X3791539Y1092824D01*
X3770965Y1099682D01*
X3764107Y1106540D01*
X3757249Y1120256D01*
X4002867Y1236080D02*
G01*
X4002867Y1092824D01*
X4002867Y1236080D02*
G01*
X4064081Y1236080D01*
X4084655Y1229222D01*
X4091513Y1222364D01*
X4098117Y1208902D01*
X4098117Y1195186D01*
X4091513Y1181470D01*
X4084655Y1174612D01*
X4064081Y1167754D01*
X4002867Y1167754D02*
G01*
X4064081Y1167754D01*
X4084655Y1161150D01*
X4091513Y1154292D01*
X4098117Y1140576D01*
X4098117Y1120256D01*
X4091513Y1106540D01*
X4084655Y1099682D01*
X4064081Y1092824D01*
X4002867Y1092824D01*
X4143329Y1236080D02*
G01*
X4143329Y1092824D01*
X4143329Y1092824D02*
G01*
X4225117Y1092824D01*
X4270075Y1236080D02*
G01*
X4270075Y1092824D01*
X4270075Y1236080D02*
G01*
X4358721Y1236080D01*
X4270075Y1167754D02*
G01*
X4324685Y1167754D01*
X4270075Y1092824D02*
G01*
X4358721Y1092824D01*
X2559151Y4698517D02*
G01*
X2572613Y4705375D01*
X2586329Y4719091D01*
X2593187Y4732807D01*
X2600045Y4753127D01*
X2600045Y4787163D01*
X2593187Y4807737D01*
X2586329Y4821453D01*
X2572613Y4834915D01*
X2559151Y4841773D01*
X2531719Y4841773D01*
X2518257Y4834915D01*
X2504541Y4821453D01*
X2497683Y4807737D01*
X2490825Y4787163D01*
X2490825Y4753127D01*
X2497683Y4732807D01*
X2504541Y4719091D01*
X2518257Y4705375D01*
X2531719Y4698517D01*
X2559151Y4698517D01*
X2445867Y4698517D02*
G01*
X2445867Y4841773D01*
X2445867Y4698517D02*
G01*
X2357221Y4698517D01*
X2445867Y4766843D02*
G01*
X2391257Y4766843D01*
X2312263Y4698517D02*
G01*
X2312263Y4841773D01*
X2312263Y4698517D02*
G01*
X2223617Y4698517D01*
X2312263Y4766843D02*
G01*
X2257653Y4766843D01*
X3059150Y4698745D02*
G01*
X3072612Y4705350D01*
X3086328Y4719065D01*
X3093186Y4732781D01*
X3100044Y4753102D01*
X3100044Y4787137D01*
X3093186Y4807712D01*
X3086328Y4821428D01*
X3072612Y4834889D01*
X3059150Y4841747D01*
X3031718Y4841747D01*
X3018256Y4834889D01*
X3004540Y4821428D01*
X2997682Y4807712D01*
X2990824Y4787137D01*
X2990824Y4753102D01*
X2997682Y4732781D01*
X3004540Y4719065D01*
X3018256Y4705350D01*
X3031718Y4698745D01*
X3059150Y4698745D01*
X2945866Y4698745D02*
G01*
X2945866Y4841747D01*
X2945866Y4698745D02*
G01*
X2850362Y4841747D01*
X2850362Y4698745D02*
G01*
X2850362Y4841747D01*
X3538727Y4819065D02*
G01*
X3538727Y4941747D01*
X3599941Y4880533D02*
G01*
X3477259Y4880533D01*
D11*
X2146312Y4233900D02*
G01*
X2068334Y4233900D01*
X2052840Y4228820D01*
X2042426Y4218406D01*
X2037346Y4202658D01*
X2037346Y4192244D01*
X2042426Y4176750D01*
X2052840Y4166336D01*
X2068334Y4161256D01*
X2146312Y4161256D01*
X2125484Y4126966D02*
G01*
X2130818Y4116552D01*
X2146312Y4100804D01*
X2037346Y4100804D01*
X849998Y4115307D02*
G01*
X849998Y4037329D01*
X855078Y4021836D01*
X865492Y4011421D01*
X881240Y4006342D01*
X891654Y4006342D01*
X907148Y4011421D01*
X917562Y4021836D01*
X922642Y4037329D01*
X922642Y4115307D01*
X1009002Y4115307D02*
G01*
X956932Y4042663D01*
X1034910Y4042663D01*
X1009002Y4115307D02*
G01*
X1009002Y4006342D01*
X5099989Y4122508D02*
G01*
X5099989Y4044530D01*
X5105069Y4029036D01*
X5115483Y4018622D01*
X5131231Y4013542D01*
X5141645Y4013542D01*
X5157139Y4018622D01*
X5167553Y4029036D01*
X5172633Y4044530D01*
X5172633Y4122508D01*
X5269407Y4122508D02*
G01*
X5217337Y4122508D01*
X5212257Y4075772D01*
X5217337Y4080852D01*
X5233085Y4086186D01*
X5248579Y4086186D01*
X5264073Y4080852D01*
X5274487Y4070692D01*
X5279821Y4054944D01*
X5279821Y4044530D01*
X5274487Y4029036D01*
X5264073Y4018622D01*
X5248579Y4013542D01*
X5233085Y4013542D01*
X5217337Y4018622D01*
X5212257Y4023702D01*
X5206923Y4034116D01*
X3903510Y2999994D02*
G01*
X3825532Y2999994D01*
X3810038Y2994913D01*
X3799624Y2984500D01*
X3794544Y2968752D01*
X3794544Y2958337D01*
X3799624Y2942844D01*
X3810038Y2932429D01*
X3825532Y2927350D01*
X3903510Y2927350D01*
X3888016Y2830576D02*
G01*
X3898430Y2835910D01*
X3903510Y2851404D01*
X3903510Y2861818D01*
X3898430Y2877312D01*
X3882682Y2887726D01*
X3856774Y2893060D01*
X3830866Y2893060D01*
X3810038Y2887726D01*
X3799624Y2877312D01*
X3794544Y2861818D01*
X3794544Y2856484D01*
X3799624Y2840989D01*
X3810038Y2830576D01*
X3825532Y2825495D01*
X3830866Y2825495D01*
X3846360Y2830576D01*
X3856774Y2840989D01*
X3861854Y2856484D01*
X3861854Y2861818D01*
X3856774Y2877312D01*
X3846360Y2887726D01*
X3830866Y2893060D01*
X99989Y2965546D02*
G01*
X99989Y2856326D01*
X99989Y2965546D02*
G01*
X141645Y2856326D01*
X183301Y2965546D02*
G01*
X141645Y2856326D01*
X183301Y2965546D02*
G01*
X183301Y2856326D01*
X248579Y2965546D02*
G01*
X238419Y2960212D01*
X228005Y2949798D01*
X222671Y2939384D01*
X217591Y2923890D01*
X217591Y2897982D01*
X222671Y2882234D01*
X228005Y2871820D01*
X238419Y2861660D01*
X248579Y2856326D01*
X269407Y2856326D01*
X279821Y2861660D01*
X290235Y2871820D01*
X295569Y2882234D01*
X300649Y2897982D01*
X300649Y2923890D01*
X295569Y2939384D01*
X290235Y2949798D01*
X279821Y2960212D01*
X269407Y2965546D01*
X248579Y2965546D01*
X371261Y2965546D02*
G01*
X371261Y2856326D01*
X334939Y2965546D02*
G01*
X407583Y2965546D01*
X473115Y2965546D02*
G01*
X462701Y2960212D01*
X452287Y2949798D01*
X447207Y2939384D01*
X441873Y2923890D01*
X441873Y2897982D01*
X447207Y2882234D01*
X452287Y2871820D01*
X462701Y2861660D01*
X473115Y2856326D01*
X493943Y2856326D01*
X504357Y2861660D01*
X514771Y2871820D01*
X519851Y2882234D01*
X525185Y2897982D01*
X525185Y2923890D01*
X519851Y2939384D01*
X514771Y2949798D01*
X504357Y2960212D01*
X493943Y2965546D01*
X473115Y2965546D01*
X559475Y2965546D02*
G01*
X559475Y2856326D01*
X559475Y2965546D02*
G01*
X606211Y2965546D01*
X621705Y2960212D01*
X627039Y2955132D01*
X632119Y2944718D01*
X632119Y2934304D01*
X627039Y2923890D01*
X621705Y2918810D01*
X606211Y2913476D01*
X559475Y2913476D01*
X595797Y2913476D02*
G01*
X632119Y2856326D01*
X788075Y2965546D02*
G01*
X746419Y2856326D01*
X788075Y2965546D02*
G01*
X829477Y2856326D01*
X761913Y2892648D02*
G01*
X813983Y2892648D01*
X5099977Y2965577D02*
G01*
X5099977Y2856356D01*
X5099977Y2965577D02*
G01*
X5141633Y2856356D01*
X5183289Y2965577D02*
G01*
X5141633Y2856356D01*
X5183289Y2965577D02*
G01*
X5183289Y2856356D01*
X5248567Y2965577D02*
G01*
X5238153Y2960243D01*
X5227993Y2949829D01*
X5222659Y2939414D01*
X5217579Y2923920D01*
X5217579Y2898012D01*
X5222659Y2882264D01*
X5227993Y2871851D01*
X5238153Y2861437D01*
X5248567Y2856356D01*
X5269395Y2856356D01*
X5279809Y2861437D01*
X5290223Y2871851D01*
X5295303Y2882264D01*
X5300637Y2898012D01*
X5300637Y2923920D01*
X5295303Y2939414D01*
X5290223Y2949829D01*
X5279809Y2960243D01*
X5269395Y2965577D01*
X5248567Y2965577D01*
X5371249Y2965577D02*
G01*
X5371249Y2856356D01*
X5334927Y2965577D02*
G01*
X5407571Y2965577D01*
X5473103Y2965577D02*
G01*
X5462689Y2960243D01*
X5452275Y2949829D01*
X5447195Y2939414D01*
X5441861Y2923920D01*
X5441861Y2898012D01*
X5447195Y2882264D01*
X5452275Y2871851D01*
X5462689Y2861437D01*
X5473103Y2856356D01*
X5493931Y2856356D01*
X5504345Y2861437D01*
X5514759Y2871851D01*
X5519839Y2882264D01*
X5525173Y2898012D01*
X5525173Y2923920D01*
X5519839Y2939414D01*
X5514759Y2949829D01*
X5504345Y2960243D01*
X5493931Y2965577D01*
X5473103Y2965577D01*
X5559463Y2965577D02*
G01*
X5559463Y2856356D01*
X5559463Y2965577D02*
G01*
X5606199Y2965577D01*
X5621693Y2960243D01*
X5626773Y2955162D01*
X5632107Y2944748D01*
X5632107Y2934335D01*
X5626773Y2923920D01*
X5621693Y2918587D01*
X5606199Y2913506D01*
X5559463Y2913506D01*
X5595785Y2913506D02*
G01*
X5632107Y2856356D01*
X5746407Y2965577D02*
G01*
X5746407Y2856356D01*
X5746407Y2965577D02*
G01*
X5793143Y2965577D01*
X5808637Y2960243D01*
X5813971Y2955162D01*
X5819051Y2944748D01*
X5819051Y2934335D01*
X5813971Y2923920D01*
X5808637Y2918587D01*
X5793143Y2913506D01*
X5746407Y2913506D02*
G01*
X5793143Y2913506D01*
X5808637Y2908427D01*
X5813971Y2903093D01*
X5819051Y2892679D01*
X5819051Y2877185D01*
X5813971Y2866770D01*
X5808637Y2861437D01*
X5793143Y2856356D01*
X5746407Y2856356D01*
X999997Y2765305D02*
G01*
X999997Y2656339D01*
X999997Y2765305D02*
G01*
X1036320Y2765305D01*
X1052068Y2760225D01*
X1062228Y2749811D01*
X1067562Y2739397D01*
X1072642Y2723649D01*
X1072642Y2697741D01*
X1067562Y2682247D01*
X1062228Y2671833D01*
X1052068Y2661419D01*
X1036320Y2656339D01*
X999997Y2656339D01*
X1106931Y2744477D02*
G01*
X1117345Y2749811D01*
X1133094Y2765305D01*
X1133094Y2656339D01*
X999997Y2265309D02*
G01*
X999997Y2156343D01*
X999997Y2265309D02*
G01*
X1036320Y2265309D01*
X1052068Y2260229D01*
X1062228Y2249815D01*
X1067562Y2239401D01*
X1072642Y2223653D01*
X1072642Y2197745D01*
X1067562Y2182251D01*
X1062228Y2171837D01*
X1052068Y2161423D01*
X1036320Y2156343D01*
X999997Y2156343D01*
X1112265Y2239401D02*
G01*
X1112265Y2244481D01*
X1117345Y2254895D01*
X1122679Y2260229D01*
X1133094Y2265309D01*
X1153668Y2265309D01*
X1164081Y2260229D01*
X1169415Y2254895D01*
X1174495Y2244481D01*
X1174495Y2234067D01*
X1169415Y2223653D01*
X1159002Y2208159D01*
X1106931Y2156343D01*
X1179829Y2156343D01*
X4699914Y2277579D02*
G01*
X4699914Y2168613D01*
X4699914Y2277579D02*
G01*
X4736236Y2277579D01*
X4751984Y2272499D01*
X4762144Y2262085D01*
X4767478Y2251671D01*
X4772558Y2235923D01*
X4772558Y2210015D01*
X4767478Y2194521D01*
X4762144Y2184107D01*
X4751984Y2173693D01*
X4736236Y2168613D01*
X4699914Y2168613D01*
X4817262Y2277579D02*
G01*
X4874412Y2277579D01*
X4843424Y2235923D01*
X4858918Y2235923D01*
X4869332Y2230843D01*
X4874412Y2225763D01*
X4879746Y2210015D01*
X4879746Y2199601D01*
X4874412Y2184107D01*
X4863998Y2173693D01*
X4848504Y2168613D01*
X4833010Y2168613D01*
X4817262Y2173693D01*
X4812182Y2178773D01*
X4806848Y2189187D01*
X4699914Y3027578D02*
G01*
X4699914Y2918612D01*
X4699914Y3027578D02*
G01*
X4736236Y3027578D01*
X4751984Y3022498D01*
X4762144Y3012084D01*
X4767478Y3001670D01*
X4772558Y2985922D01*
X4772558Y2960014D01*
X4767478Y2944520D01*
X4762144Y2934106D01*
X4751984Y2923692D01*
X4736236Y2918612D01*
X4699914Y2918612D01*
X4858918Y3027578D02*
G01*
X4806848Y2954934D01*
X4884826Y2954934D01*
X4858918Y3027578D02*
G01*
X4858918Y2918612D01*
X4703991Y2755811D02*
G01*
X4703991Y2646845D01*
X4703991Y2755811D02*
G01*
X4740313Y2755811D01*
X4756061Y2750731D01*
X4766221Y2740317D01*
X4771555Y2729903D01*
X4776635Y2714155D01*
X4776635Y2688247D01*
X4771555Y2672753D01*
X4766221Y2662339D01*
X4756061Y2651925D01*
X4740313Y2646845D01*
X4703991Y2646845D01*
X4873409Y2755811D02*
G01*
X4821339Y2755811D01*
X4816259Y2709075D01*
X4821339Y2714155D01*
X4837087Y2719489D01*
X4852581Y2719489D01*
X4868075Y2714155D01*
X4878489Y2703995D01*
X4883823Y2688247D01*
X4883823Y2677833D01*
X4878489Y2662339D01*
X4868075Y2651925D01*
X4852581Y2646845D01*
X4837087Y2646845D01*
X4821339Y2651925D01*
X4816259Y2657005D01*
X4810925Y2667419D01*
X4703975Y2501811D02*
G01*
X4703975Y2392845D01*
X4703975Y2501811D02*
G01*
X4740297Y2501811D01*
X4756045Y2496731D01*
X4766205Y2486317D01*
X4771539Y2475903D01*
X4776619Y2460155D01*
X4776619Y2434247D01*
X4771539Y2418753D01*
X4766205Y2408339D01*
X4756045Y2397925D01*
X4740297Y2392845D01*
X4703975Y2392845D01*
X4873393Y2486317D02*
G01*
X4868059Y2496731D01*
X4852565Y2501811D01*
X4842151Y2501811D01*
X4826657Y2496731D01*
X4816243Y2480983D01*
X4810909Y2455075D01*
X4810909Y2429167D01*
X4816243Y2408339D01*
X4826657Y2397925D01*
X4842151Y2392845D01*
X4847485Y2392845D01*
X4862979Y2397925D01*
X4873393Y2408339D01*
X4878473Y2423833D01*
X4878473Y2429167D01*
X4873393Y2444661D01*
X4862979Y2455075D01*
X4847485Y2460155D01*
X4842151Y2460155D01*
X4826657Y2455075D01*
X4816243Y2444661D01*
X4810909Y2429167D01*
X1000008Y2515308D02*
G01*
X1000008Y2406342D01*
X1000008Y2515308D02*
G01*
X1036330Y2515308D01*
X1052078Y2510228D01*
X1062238Y2499814D01*
X1067572Y2489400D01*
X1072652Y2473652D01*
X1072652Y2447744D01*
X1067572Y2432250D01*
X1062238Y2421836D01*
X1052078Y2411422D01*
X1036330Y2406342D01*
X1000008Y2406342D01*
X1179840Y2515308D02*
G01*
X1127770Y2406342D01*
X1106942Y2515308D02*
G01*
X1179840Y2515308D01*
X999997Y3015305D02*
G01*
X999997Y2906339D01*
X999997Y3015305D02*
G01*
X1036320Y3015305D01*
X1052068Y3010225D01*
X1062228Y2999811D01*
X1067562Y2989397D01*
X1072642Y2973649D01*
X1072642Y2947741D01*
X1067562Y2932247D01*
X1062228Y2921833D01*
X1052068Y2911419D01*
X1036320Y2906339D01*
X999997Y2906339D01*
X1133094Y3015305D02*
G01*
X1117345Y3010225D01*
X1112265Y2999811D01*
X1112265Y2989397D01*
X1117345Y2978983D01*
X1127760Y2973649D01*
X1148587Y2968569D01*
X1164081Y2963489D01*
X1174495Y2953075D01*
X1179829Y2942661D01*
X1179829Y2926913D01*
X1174495Y2916499D01*
X1169415Y2911419D01*
X1153668Y2906339D01*
X1133094Y2906339D01*
X1117345Y2911419D01*
X1112265Y2916499D01*
X1106931Y2926913D01*
X1106931Y2942661D01*
X1112265Y2953075D01*
X1122679Y2963489D01*
X1138173Y2968569D01*
X1159002Y2973649D01*
X1169415Y2978983D01*
X1174495Y2989397D01*
X1174495Y2999811D01*
X1169415Y3010225D01*
X1153668Y3015305D01*
X1133094Y3015305D01*
G36*
X362407Y3753358D02*
G01*
X362407Y3728465D01*
X461975Y3728465D01*
X461975Y3753358D01*
G37*
G36*
X1037996Y3753358D02*
G01*
X1037996Y3728465D01*
X1137615Y3728465D01*
X1137615Y3753358D01*
G37*
G36*
X1075334Y3823919D02*
G01*
X1075334Y3657904D01*
X1100226Y3657904D01*
X1100226Y3823919D01*
G37*
G36*
X5388000Y3371545D02*
G01*
X5388000Y3346653D01*
X5487568Y3346653D01*
X5487568Y3371545D01*
G37*
G36*
X4712411Y3371545D02*
G01*
X4712411Y3346653D01*
X4811979Y3346653D01*
X4811979Y3371545D01*
G37*
G36*
X4749749Y3442106D02*
G01*
X4749749Y3276092D01*
X4774641Y3276092D01*
X4774641Y3442106D01*
G37*
X1315377Y4608471D02*
G01*
X1315377Y4011729D01*
X1984616Y4608471D02*
G01*
X1984616Y4011729D01*
X1315377Y4011729D02*
G01*
X1984616Y4011729D01*
D10*
X2421356Y4476191D02*
G01*
X2421356Y4323791D01*
X2522956Y4323791D01*
X2878556Y4323791D01*
X2980156Y4323791D01*
X2980156Y4476191D01*
X2878556Y4476191D01*
X2522956Y4476191D01*
X2421356Y4476191D01*
D12*
X2699994Y4628591D02*
G01*
X2293594Y4628591D01*
X2699994Y4171391D02*
G01*
X2293594Y4171391D01*
X2290038Y4171391D02*
G01*
X2290038Y4628591D01*
X2699994Y4171391D02*
G01*
X3106394Y4171391D01*
X2699994Y4628591D02*
G01*
X3106394Y4628591D01*
X3109950Y4171391D02*
G01*
X3109950Y4628591D01*
D11*
X329874Y3628232D02*
G01*
X329874Y3972615D01*
X996495Y3972615D01*
X1170122Y3798989D01*
X1170122Y3628232D01*
X329874Y3471753D02*
G01*
X329874Y3127369D01*
X996495Y3127369D01*
X1170122Y3300996D01*
X1170122Y3471753D01*
X5520113Y3471753D02*
G01*
X5520113Y3127369D01*
X4853492Y3127369D01*
X4679866Y3300996D01*
X4679866Y3471753D01*
X5520113Y3628232D02*
G01*
X5520113Y3972615D01*
X4853492Y3972615D01*
X4679866Y3798989D01*
X4679866Y3628232D01*
X2442855Y3802613D02*
G01*
X3457133Y3802613D01*
X3457133Y2197374D01*
X2442855Y2197374D01*
X2442855Y3802613D01*
D12*
X4149991Y4009994D02*
G01*
X4149991Y4759993D01*
X3449993Y4009994D02*
G01*
X3449993Y4759993D01*
X3449993Y4009994D02*
G01*
X4149991Y4009994D01*
X3449993Y4759993D02*
G01*
X4149991Y4759993D01*
X3548385Y4759993D02*
G01*
X3548385Y4692091D01*
X3711092Y4692091D01*
X3711092Y4759993D01*
X3888933Y4759993D02*
G01*
X3888933Y4692091D01*
X4053992Y4692091D01*
X4053992Y4759993D01*
X3449993Y4565147D02*
G01*
X4149991Y4565147D01*
X3449993Y4225874D02*
G01*
X4149991Y4225874D01*
X3449993Y4095191D02*
G01*
X4149991Y4095191D01*
X55498Y2334094D02*
G01*
X55498Y2762496D01*
X601598Y2334094D02*
G01*
X55498Y2334094D01*
X601598Y2334094D02*
G01*
X601598Y2421592D01*
X534304Y2421592D01*
X605000Y2762496D02*
G01*
X605000Y2674995D01*
X537697Y2674995D01*
X605000Y2762496D02*
G01*
X55001Y2762496D01*
X5944488Y2765894D02*
G01*
X5944488Y2337493D01*
X5398388Y2765894D02*
G01*
X5944488Y2765894D01*
X5398388Y2765894D02*
G01*
X5398388Y2678396D01*
X5465683Y2678396D01*
X5394987Y2337493D02*
G01*
X5394987Y2424993D01*
X5462290Y2424993D01*
X5394987Y2337493D02*
G01*
X5944986Y2337493D01*
D10*
X1094994Y1722996D02*
G01*
X1094994Y1722996D01*
X1094994Y1976996D01*
X4904993Y1976996D01*
X4904993Y1722996D01*
X4714493Y1722996D01*
D13*
X1094994Y1722996D02*
G01*
X4714493Y1722996D01*
D10*
X1094994Y198998D02*
G01*
X1094994Y198998D01*
X1094994Y452998D01*
X4904993Y452998D01*
X4904993Y198998D01*
X4714493Y198998D01*
D13*
X1094994Y198998D02*
G01*
X4714493Y198998D01*
D12*
X1291490Y2793944D02*
G01*
X1591490Y2793944D01*
X1292826Y2605976D02*
G01*
X1592826Y2605976D01*
X1367294Y2699291D02*
G01*
X1519694Y2699291D01*
X1392694Y2750091D02*
G01*
X1392694Y2648491D01*
X1494294Y2658651D02*
G01*
X1392694Y2699291D01*
X1494294Y2739931D02*
G01*
X1494294Y2658651D01*
X1392694Y2699291D02*
G01*
X1494294Y2739931D01*
X1297993Y2294648D02*
G01*
X1597992Y2294648D01*
X1299329Y2106681D02*
G01*
X1599328Y2106681D01*
X1373797Y2199995D02*
G01*
X1526197Y2199995D01*
X1399197Y2250795D02*
G01*
X1399197Y2149195D01*
X1500797Y2159355D02*
G01*
X1399197Y2199995D01*
X1500797Y2240635D02*
G01*
X1500797Y2159355D01*
X1399197Y2199995D02*
G01*
X1500797Y2240635D01*
X4601918Y2117615D02*
G01*
X4301919Y2117615D01*
X4600582Y2305583D02*
G01*
X4300583Y2305583D01*
X4526114Y2212268D02*
G01*
X4373714Y2212268D01*
X4500714Y2161468D02*
G01*
X4500714Y2263068D01*
X4399114Y2252908D02*
G01*
X4500714Y2212268D01*
X4399114Y2171628D02*
G01*
X4399114Y2252908D01*
X4500714Y2212268D02*
G01*
X4399114Y2171628D01*
X4601918Y2867614D02*
G01*
X4301919Y2867614D01*
X4600582Y3055581D02*
G01*
X4300583Y3055581D01*
X4526114Y2962267D02*
G01*
X4373714Y2962267D01*
X4500714Y2911467D02*
G01*
X4500714Y3013067D01*
X4399114Y3002907D02*
G01*
X4500714Y2962267D01*
X4399114Y2921627D02*
G01*
X4399114Y3002907D01*
X4500714Y2962267D02*
G01*
X4399114Y2921627D01*
X4297987Y2798648D02*
G01*
X4597986Y2798648D01*
X4299323Y2610680D02*
G01*
X4599322Y2610680D01*
X4373791Y2703995D02*
G01*
X4526191Y2703995D01*
X4399191Y2754795D02*
G01*
X4399191Y2653195D01*
X4500791Y2663355D02*
G01*
X4399191Y2703995D01*
X4500791Y2744635D02*
G01*
X4500791Y2663355D01*
X4399191Y2703995D02*
G01*
X4500791Y2744635D01*
X4297987Y2544648D02*
G01*
X4597986Y2544648D01*
X4299323Y2356680D02*
G01*
X4599322Y2356680D01*
X4373791Y2449995D02*
G01*
X4526191Y2449995D01*
X4399191Y2500795D02*
G01*
X4399191Y2399195D01*
X4500791Y2409355D02*
G01*
X4399191Y2449995D01*
X4500791Y2490635D02*
G01*
X4500791Y2409355D01*
X4399191Y2449995D02*
G01*
X4500791Y2490635D01*
X1602000Y2355342D02*
G01*
X1302001Y2355342D01*
X1600664Y2543309D02*
G01*
X1300665Y2543309D01*
X1526197Y2449995D02*
G01*
X1373797Y2449995D01*
X1500797Y2399195D02*
G01*
X1500797Y2500795D01*
X1399197Y2490635D02*
G01*
X1500797Y2449995D01*
X1399197Y2409355D02*
G01*
X1399197Y2490635D01*
X1500797Y2449995D02*
G01*
X1399197Y2409355D01*
X1602000Y2855340D02*
G01*
X1302001Y2855340D01*
X1600664Y3043308D02*
G01*
X1300665Y3043308D01*
X1526197Y2949994D02*
G01*
X1373797Y2949994D01*
X1500797Y2899194D02*
G01*
X1500797Y3000794D01*
X1399197Y2990634D02*
G01*
X1500797Y2949994D01*
X1399197Y2909354D02*
G01*
X1399197Y2990634D01*
X1500797Y2949994D02*
G01*
X1399197Y2909354D01*
D14*
G75*
G01
X2533117Y3571494D02*
G03X2533117Y3571494I-15011J0D01*
G75*
G01
X2300249Y3649294D02*
G03X2300249Y3649294I-15011J0D01*
D12*
X860044Y1977009D02*
G01*
X5190744Y1977009D01*
X5190744Y199009D01*
X860044Y199009D01*
X860044Y1977009D01*
X688594Y1367409D02*
G01*
X1234694Y1367409D01*
X1234694Y808609D01*
X688594Y808609D01*
X688594Y1367409D01*
M02*
